<mxfile host="Electron" agent="Mozilla/5.0 (X11; Linux x86_64) AppleWebKit/537.36 (KHTML, like Gecko) draw.io/26.2.2 Chrome/134.0.6998.178 Electron/35.1.2 Safari/537.36" version="26.2.2" pages="3">
  <diagram name="Basic Flow Architecture" id="b6HSXaWkZ8W_aBNLuT78">
    <mxGraphModel dx="1680" dy="999" grid="1" gridSize="10" guides="1" tooltips="1" connect="1" arrows="1" fold="1" page="1" pageScale="1" pageWidth="850" pageHeight="1100" math="0" shadow="0">
      <root>
        <mxCell id="0" />
        <mxCell id="1" parent="0" />
        <mxCell id="4FOPdvJ6vNSYIctC0aFd-19" style="edgeStyle=orthogonalEdgeStyle;rounded=0;orthogonalLoop=1;jettySize=auto;html=1;entryX=0.5;entryY=0;entryDx=0;entryDy=0;" parent="1" source="4FOPdvJ6vNSYIctC0aFd-1" target="4FOPdvJ6vNSYIctC0aFd-3" edge="1">
          <mxGeometry relative="1" as="geometry" />
        </mxCell>
        <mxCell id="4FOPdvJ6vNSYIctC0aFd-1" value="" style="rounded=1;whiteSpace=wrap;html=1;" parent="1" vertex="1">
          <mxGeometry x="365" y="20" width="120" height="60" as="geometry" />
        </mxCell>
        <mxCell id="4FOPdvJ6vNSYIctC0aFd-2" value="User" style="text;html=1;align=center;verticalAlign=middle;whiteSpace=wrap;rounded=0;" parent="1" vertex="1">
          <mxGeometry x="395" y="35" width="60" height="30" as="geometry" />
        </mxCell>
        <mxCell id="4FOPdvJ6vNSYIctC0aFd-20" style="edgeStyle=orthogonalEdgeStyle;rounded=0;orthogonalLoop=1;jettySize=auto;html=1;entryX=0.5;entryY=0;entryDx=0;entryDy=0;" parent="1" source="4FOPdvJ6vNSYIctC0aFd-3" target="4FOPdvJ6vNSYIctC0aFd-4" edge="1">
          <mxGeometry relative="1" as="geometry" />
        </mxCell>
        <mxCell id="4FOPdvJ6vNSYIctC0aFd-30" style="edgeStyle=orthogonalEdgeStyle;rounded=0;orthogonalLoop=1;jettySize=auto;html=1;entryX=0.5;entryY=1;entryDx=0;entryDy=0;" parent="1" source="4FOPdvJ6vNSYIctC0aFd-3" target="4FOPdvJ6vNSYIctC0aFd-13" edge="1">
          <mxGeometry relative="1" as="geometry">
            <Array as="points">
              <mxPoint x="40" y="180" />
              <mxPoint x="40" y="1010" />
              <mxPoint x="425" y="1010" />
            </Array>
          </mxGeometry>
        </mxCell>
        <mxCell id="4FOPdvJ6vNSYIctC0aFd-3" value="" style="rounded=1;whiteSpace=wrap;html=1;" parent="1" vertex="1">
          <mxGeometry x="365" y="150" width="120" height="60" as="geometry" />
        </mxCell>
        <mxCell id="4FOPdvJ6vNSYIctC0aFd-21" style="edgeStyle=orthogonalEdgeStyle;rounded=0;orthogonalLoop=1;jettySize=auto;html=1;entryX=0.5;entryY=0;entryDx=0;entryDy=0;" parent="1" source="4FOPdvJ6vNSYIctC0aFd-4" target="4FOPdvJ6vNSYIctC0aFd-7" edge="1">
          <mxGeometry relative="1" as="geometry" />
        </mxCell>
        <mxCell id="4FOPdvJ6vNSYIctC0aFd-31" style="edgeStyle=orthogonalEdgeStyle;rounded=0;orthogonalLoop=1;jettySize=auto;html=1;entryX=0.5;entryY=1;entryDx=0;entryDy=0;" parent="1" source="4FOPdvJ6vNSYIctC0aFd-4" target="4FOPdvJ6vNSYIctC0aFd-13" edge="1">
          <mxGeometry relative="1" as="geometry">
            <Array as="points">
              <mxPoint x="820" y="310" />
              <mxPoint x="820" y="970" />
              <mxPoint x="425" y="970" />
            </Array>
          </mxGeometry>
        </mxCell>
        <mxCell id="4FOPdvJ6vNSYIctC0aFd-4" value="" style="rounded=1;whiteSpace=wrap;html=1;" parent="1" vertex="1">
          <mxGeometry x="365" y="280" width="120" height="60" as="geometry" />
        </mxCell>
        <mxCell id="4FOPdvJ6vNSYIctC0aFd-5" value="Registration Service" style="text;html=1;align=center;verticalAlign=middle;whiteSpace=wrap;rounded=0;" parent="1" vertex="1">
          <mxGeometry x="395" y="165" width="60" height="30" as="geometry" />
        </mxCell>
        <mxCell id="4FOPdvJ6vNSYIctC0aFd-6" value="Authentication Service" style="text;html=1;align=center;verticalAlign=middle;whiteSpace=wrap;rounded=0;" parent="1" vertex="1">
          <mxGeometry x="395" y="295" width="60" height="30" as="geometry" />
        </mxCell>
        <mxCell id="4FOPdvJ6vNSYIctC0aFd-22" style="edgeStyle=orthogonalEdgeStyle;rounded=0;orthogonalLoop=1;jettySize=auto;html=1;entryX=0.5;entryY=0;entryDx=0;entryDy=0;" parent="1" source="4FOPdvJ6vNSYIctC0aFd-7" edge="1">
          <mxGeometry relative="1" as="geometry">
            <mxPoint x="425" y="530" as="targetPoint" />
          </mxGeometry>
        </mxCell>
        <mxCell id="4FOPdvJ6vNSYIctC0aFd-7" value="" style="rounded=1;whiteSpace=wrap;html=1;" parent="1" vertex="1">
          <mxGeometry x="365" y="420" width="120" height="60" as="geometry" />
        </mxCell>
        <mxCell id="4FOPdvJ6vNSYIctC0aFd-8" value="Welcome Page" style="text;html=1;align=center;verticalAlign=middle;whiteSpace=wrap;rounded=0;" parent="1" vertex="1">
          <mxGeometry x="395" y="435" width="60" height="30" as="geometry" />
        </mxCell>
        <mxCell id="4FOPdvJ6vNSYIctC0aFd-28" style="edgeStyle=orthogonalEdgeStyle;rounded=0;orthogonalLoop=1;jettySize=auto;html=1;entryX=0;entryY=0.5;entryDx=0;entryDy=0;" parent="1" source="4FOPdvJ6vNSYIctC0aFd-9" target="4FOPdvJ6vNSYIctC0aFd-13" edge="1">
          <mxGeometry relative="1" as="geometry">
            <Array as="points">
              <mxPoint x="170" y="900" />
            </Array>
          </mxGeometry>
        </mxCell>
        <mxCell id="4FOPdvJ6vNSYIctC0aFd-9" value="" style="rounded=1;whiteSpace=wrap;html=1;" parent="1" vertex="1">
          <mxGeometry x="110" y="545" width="120" height="60" as="geometry" />
        </mxCell>
        <mxCell id="4FOPdvJ6vNSYIctC0aFd-32" style="edgeStyle=orthogonalEdgeStyle;rounded=0;orthogonalLoop=1;jettySize=auto;html=1;entryX=1;entryY=0.5;entryDx=0;entryDy=0;" parent="1" source="4FOPdvJ6vNSYIctC0aFd-10" target="4FOPdvJ6vNSYIctC0aFd-13" edge="1">
          <mxGeometry relative="1" as="geometry">
            <Array as="points">
              <mxPoint x="670" y="900" />
            </Array>
          </mxGeometry>
        </mxCell>
        <mxCell id="4FOPdvJ6vNSYIctC0aFd-10" value="" style="rounded=1;whiteSpace=wrap;html=1;" parent="1" vertex="1">
          <mxGeometry x="610" y="545" width="120" height="60" as="geometry" />
        </mxCell>
        <mxCell id="4FOPdvJ6vNSYIctC0aFd-27" style="edgeStyle=orthogonalEdgeStyle;rounded=0;orthogonalLoop=1;jettySize=auto;html=1;entryX=0.5;entryY=0;entryDx=0;entryDy=0;" parent="1" source="4FOPdvJ6vNSYIctC0aFd-12" target="4FOPdvJ6vNSYIctC0aFd-13" edge="1">
          <mxGeometry relative="1" as="geometry" />
        </mxCell>
        <mxCell id="4FOPdvJ6vNSYIctC0aFd-12" value="" style="rounded=1;whiteSpace=wrap;html=1;" parent="1" vertex="1">
          <mxGeometry x="365" y="750" width="120" height="60" as="geometry" />
        </mxCell>
        <mxCell id="4FOPdvJ6vNSYIctC0aFd-13" value="" style="rounded=1;whiteSpace=wrap;html=1;" parent="1" vertex="1">
          <mxGeometry x="365" y="870" width="120" height="60" as="geometry" />
        </mxCell>
        <mxCell id="4FOPdvJ6vNSYIctC0aFd-14" value="Verification Controller" style="text;html=1;align=center;verticalAlign=middle;whiteSpace=wrap;rounded=0;" parent="1" vertex="1">
          <mxGeometry x="395" y="555" width="60" height="30" as="geometry" />
        </mxCell>
        <mxCell id="4FOPdvJ6vNSYIctC0aFd-15" value="Voting Service" style="text;html=1;align=center;verticalAlign=middle;whiteSpace=wrap;rounded=0;" parent="1" vertex="1">
          <mxGeometry x="395" y="765" width="60" height="30" as="geometry" />
        </mxCell>
        <mxCell id="4FOPdvJ6vNSYIctC0aFd-16" value="ID Processing Service" style="text;html=1;align=center;verticalAlign=middle;whiteSpace=wrap;rounded=0;" parent="1" vertex="1">
          <mxGeometry x="140" y="560" width="60" height="30" as="geometry" />
        </mxCell>
        <mxCell id="4FOPdvJ6vNSYIctC0aFd-17" value="Facial Recognition Service" style="text;html=1;align=center;verticalAlign=middle;whiteSpace=wrap;rounded=0;" parent="1" vertex="1">
          <mxGeometry x="640" y="560" width="60" height="30" as="geometry" />
        </mxCell>
        <mxCell id="4FOPdvJ6vNSYIctC0aFd-37" style="edgeStyle=orthogonalEdgeStyle;rounded=0;orthogonalLoop=1;jettySize=auto;html=1;entryX=1;entryY=0.5;entryDx=0;entryDy=0;" parent="1" source="4FOPdvJ6vNSYIctC0aFd-33" target="4FOPdvJ6vNSYIctC0aFd-9" edge="1">
          <mxGeometry relative="1" as="geometry" />
        </mxCell>
        <mxCell id="4FOPdvJ6vNSYIctC0aFd-39" style="edgeStyle=orthogonalEdgeStyle;rounded=0;orthogonalLoop=1;jettySize=auto;html=1;entryX=0;entryY=0.5;entryDx=0;entryDy=0;" parent="1" source="4FOPdvJ6vNSYIctC0aFd-33" target="4FOPdvJ6vNSYIctC0aFd-10" edge="1">
          <mxGeometry relative="1" as="geometry" />
        </mxCell>
        <mxCell id="4FOPdvJ6vNSYIctC0aFd-40" style="edgeStyle=orthogonalEdgeStyle;rounded=0;orthogonalLoop=1;jettySize=auto;html=1;entryX=0.5;entryY=0;entryDx=0;entryDy=0;" parent="1" source="4FOPdvJ6vNSYIctC0aFd-33" target="4FOPdvJ6vNSYIctC0aFd-12" edge="1">
          <mxGeometry relative="1" as="geometry" />
        </mxCell>
        <mxCell id="4FOPdvJ6vNSYIctC0aFd-33" value="" style="rhombus;whiteSpace=wrap;html=1;" parent="1" vertex="1">
          <mxGeometry x="378" y="530" width="95" height="90" as="geometry" />
        </mxCell>
        <mxCell id="4FOPdvJ6vNSYIctC0aFd-18" value="Audit Logging Service" style="text;html=1;align=center;verticalAlign=middle;whiteSpace=wrap;rounded=0;" parent="1" vertex="1">
          <mxGeometry x="395" y="885" width="60" height="30" as="geometry" />
        </mxCell>
        <mxCell id="4FOPdvJ6vNSYIctC0aFd-34" value="Verification Controller" style="text;html=1;align=center;verticalAlign=middle;whiteSpace=wrap;rounded=0;" parent="1" vertex="1">
          <mxGeometry x="395" y="560" width="60" height="30" as="geometry" />
        </mxCell>
      </root>
    </mxGraphModel>
  </diagram>
  <diagram id="VtUXxqrS6FwvWXqRCL6A" name="Detailed Flow Architecture">
    <mxGraphModel dx="2002" dy="1203" grid="1" gridSize="10" guides="1" tooltips="1" connect="1" arrows="1" fold="1" page="1" pageScale="1" pageWidth="850" pageHeight="1100" math="0" shadow="0">
      <root>
        <mxCell id="0" />
        <mxCell id="1" parent="0" />
        <mxCell id="bP8R0NQ_yirpy0KztJYJ-9" value="" style="rhombus;whiteSpace=wrap;html=1;fillColor=#a20025;fontColor=#ffffff;strokeColor=#6F0000;" vertex="1" parent="1">
          <mxGeometry x="466.6" y="45" width="120" height="110" as="geometry" />
        </mxCell>
        <mxCell id="HgqSSNmQoXdVTZQls64a-10" style="edgeStyle=orthogonalEdgeStyle;rounded=0;orthogonalLoop=1;jettySize=auto;html=1;dashed=1;" parent="1" source="gfaHNzCH5bzECuTe03nf-2" target="gC_7pkf9eAkhHWgaOsjs-3" edge="1">
          <mxGeometry relative="1" as="geometry" />
        </mxCell>
        <mxCell id="bP8R0NQ_yirpy0KztJYJ-10" style="edgeStyle=orthogonalEdgeStyle;rounded=0;orthogonalLoop=1;jettySize=auto;html=1;" edge="1" parent="1" source="gfaHNzCH5bzECuTe03nf-2" target="bP8R0NQ_yirpy0KztJYJ-9">
          <mxGeometry relative="1" as="geometry" />
        </mxCell>
        <mxCell id="gfaHNzCH5bzECuTe03nf-2" value="" style="rounded=1;whiteSpace=wrap;html=1;" parent="1" vertex="1">
          <mxGeometry x="200" y="70" width="120" height="60" as="geometry" />
        </mxCell>
        <mxCell id="gfaHNzCH5bzECuTe03nf-3" value="" style="rounded=1;whiteSpace=wrap;html=1;container=0;fillStyle=auto;dashed=1;dashPattern=1 4;fillColor=#dae8fc;strokeColor=#6c8ebf;" parent="1" vertex="1">
          <mxGeometry x="10" y="601.1" width="190" height="390" as="geometry" />
        </mxCell>
        <mxCell id="gfaHNzCH5bzECuTe03nf-4" value="Roles" style="text;html=1;align=center;verticalAlign=middle;whiteSpace=wrap;rounded=0;fontColor=#000000;fontFamily=Times New Roman;fontSize=18;fontStyle=1" parent="1" vertex="1">
          <mxGeometry x="10" y="611.1" width="60" height="30" as="geometry" />
        </mxCell>
        <mxCell id="gfaHNzCH5bzECuTe03nf-5" value="&lt;font style=&quot;&quot;&gt;admin&lt;/font&gt;" style="sketch=0;outlineConnect=0;fontColor=#000000;gradientColor=none;strokeColor=#232F3E;fillColor=#ffffff;dashed=0;verticalLabelPosition=bottom;verticalAlign=top;align=center;html=1;fontSize=14;fontStyle=0;aspect=fixed;shape=mxgraph.aws4.resourceIcon;resIcon=mxgraph.aws4.user;fontFamily=Times New Roman;" parent="1" vertex="1">
          <mxGeometry x="15" y="691.1" width="60" height="60" as="geometry" />
        </mxCell>
        <mxCell id="gfaHNzCH5bzECuTe03nf-6" value="&lt;font style=&quot;&quot;&gt;super_admin&lt;/font&gt;" style="sketch=0;outlineConnect=0;fontColor=#000000;gradientColor=none;strokeColor=#232F3E;fillColor=#ffffff;dashed=0;verticalLabelPosition=bottom;verticalAlign=top;align=center;html=1;fontSize=14;fontStyle=0;aspect=fixed;shape=mxgraph.aws4.resourceIcon;resIcon=mxgraph.aws4.user;fontFamily=Times New Roman;" parent="1" vertex="1">
          <mxGeometry x="86.4" y="691.1" width="60" height="60" as="geometry" />
        </mxCell>
        <mxCell id="gfaHNzCH5bzECuTe03nf-8" value="&lt;font&gt;candidate&lt;/font&gt;" style="sketch=0;outlineConnect=0;fontColor=light-dark(#232F3E, #000000);gradientColor=none;strokeColor=#232F3E;fillColor=#ffffff;dashed=0;verticalLabelPosition=bottom;verticalAlign=top;align=center;html=1;fontSize=14;fontStyle=0;aspect=fixed;shape=mxgraph.aws4.resourceIcon;resIcon=mxgraph.aws4.user;fontFamily=Times New Roman;" parent="1" vertex="1">
          <mxGeometry x="86.4" y="801.1" width="60" height="60" as="geometry" />
        </mxCell>
        <mxCell id="gfaHNzCH5bzECuTe03nf-13" value="" style="strokeWidth=2;html=1;shape=mxgraph.flowchart.database;whiteSpace=wrap;fillColor=#f8cecc;strokeColor=#b85450;" parent="1" vertex="1">
          <mxGeometry x="120" y="901.1" width="60" height="60" as="geometry" />
        </mxCell>
        <mxCell id="gfaHNzCH5bzECuTe03nf-14" value="&lt;font style=&quot;&quot;&gt;SQL Database&lt;/font&gt;" style="text;html=1;align=center;verticalAlign=middle;whiteSpace=wrap;rounded=0;fontSize=14;fontFamily=Times New Roman;fontColor=#000000;" parent="1" vertex="1">
          <mxGeometry x="30" y="916.1" width="60" height="30" as="geometry" />
        </mxCell>
        <mxCell id="gfaHNzCH5bzECuTe03nf-15" value="Authentication Service" style="text;html=1;align=center;verticalAlign=middle;whiteSpace=wrap;rounded=0;" parent="1" vertex="1">
          <mxGeometry x="230" y="85" width="60" height="30" as="geometry" />
        </mxCell>
        <mxCell id="gfaHNzCH5bzECuTe03nf-16" value="" style="rounded=1;whiteSpace=wrap;html=1;" parent="1" vertex="1">
          <mxGeometry x="920" y="65" width="120" height="60" as="geometry" />
        </mxCell>
        <mxCell id="gfaHNzCH5bzECuTe03nf-17" value="Welcome Page" style="text;html=1;align=center;verticalAlign=middle;whiteSpace=wrap;rounded=0;" parent="1" vertex="1">
          <mxGeometry x="950" y="80" width="60" height="30" as="geometry" />
        </mxCell>
        <mxCell id="gC_7pkf9eAkhHWgaOsjs-2" style="edgeStyle=orthogonalEdgeStyle;rounded=0;orthogonalLoop=1;jettySize=auto;html=1;entryX=0;entryY=0.5;entryDx=0;entryDy=0;" parent="1" source="gC_7pkf9eAkhHWgaOsjs-1" target="gfaHNzCH5bzECuTe03nf-2" edge="1">
          <mxGeometry relative="1" as="geometry" />
        </mxCell>
        <mxCell id="gC_7pkf9eAkhHWgaOsjs-1" value="&lt;font style=&quot;color: rgb(255, 255, 255);&quot;&gt;user&lt;/font&gt;" style="sketch=0;outlineConnect=0;fontColor=#232F3E;gradientColor=none;strokeColor=#232F3E;fillColor=#ffffff;dashed=0;verticalLabelPosition=bottom;verticalAlign=top;align=center;html=1;fontSize=12;fontStyle=0;aspect=fixed;shape=mxgraph.aws4.resourceIcon;resIcon=mxgraph.aws4.user;" parent="1" vertex="1">
          <mxGeometry x="36.400000000000006" y="70" width="60" height="60" as="geometry" />
        </mxCell>
        <mxCell id="gC_7pkf9eAkhHWgaOsjs-3" value="" style="sketch=0;pointerEvents=1;shadow=0;dashed=0;html=1;strokeColor=none;fillColor=#FFFFFF;aspect=fixed;labelPosition=center;verticalLabelPosition=bottom;verticalAlign=top;align=center;outlineConnect=0;shape=mxgraph.vvd.log_files;" parent="1" vertex="1">
          <mxGeometry x="224" y="231.7" width="72" height="90" as="geometry" />
        </mxCell>
        <mxCell id="gC_7pkf9eAkhHWgaOsjs-11" style="edgeStyle=orthogonalEdgeStyle;rounded=0;orthogonalLoop=1;jettySize=auto;html=1;" parent="1" source="gC_7pkf9eAkhHWgaOsjs-7" target="gfaHNzCH5bzECuTe03nf-16" edge="1">
          <mxGeometry relative="1" as="geometry" />
        </mxCell>
        <mxCell id="Ce8A14sFw2mneAr2ICW--26" style="edgeStyle=orthogonalEdgeStyle;rounded=0;orthogonalLoop=1;jettySize=auto;html=1;entryX=0;entryY=0.5;entryDx=0;entryDy=0;" edge="1" parent="1" source="gC_7pkf9eAkhHWgaOsjs-7" target="Ce8A14sFw2mneAr2ICW--12">
          <mxGeometry relative="1" as="geometry" />
        </mxCell>
        <mxCell id="Ce8A14sFw2mneAr2ICW--27" style="edgeStyle=orthogonalEdgeStyle;rounded=0;orthogonalLoop=1;jettySize=auto;html=1;entryX=0;entryY=0.5;entryDx=0;entryDy=0;" edge="1" parent="1" source="gC_7pkf9eAkhHWgaOsjs-7" target="Ce8A14sFw2mneAr2ICW--14">
          <mxGeometry relative="1" as="geometry" />
        </mxCell>
        <mxCell id="Ce8A14sFw2mneAr2ICW--28" style="edgeStyle=orthogonalEdgeStyle;rounded=0;orthogonalLoop=1;jettySize=auto;html=1;entryX=0;entryY=0.5;entryDx=0;entryDy=0;" edge="1" parent="1" source="gC_7pkf9eAkhHWgaOsjs-7" target="Ce8A14sFw2mneAr2ICW--16">
          <mxGeometry relative="1" as="geometry" />
        </mxCell>
        <mxCell id="Ce8A14sFw2mneAr2ICW--29" style="edgeStyle=orthogonalEdgeStyle;rounded=0;orthogonalLoop=1;jettySize=auto;html=1;entryX=0;entryY=0.5;entryDx=0;entryDy=0;" edge="1" parent="1" source="gC_7pkf9eAkhHWgaOsjs-7" target="Ce8A14sFw2mneAr2ICW--18">
          <mxGeometry relative="1" as="geometry" />
        </mxCell>
        <mxCell id="Ce8A14sFw2mneAr2ICW--31" style="edgeStyle=orthogonalEdgeStyle;rounded=0;orthogonalLoop=1;jettySize=auto;html=1;entryX=0;entryY=0.5;entryDx=0;entryDy=0;" edge="1" parent="1" source="gC_7pkf9eAkhHWgaOsjs-7" target="Ce8A14sFw2mneAr2ICW--22">
          <mxGeometry relative="1" as="geometry" />
        </mxCell>
        <mxCell id="Ce8A14sFw2mneAr2ICW--32" style="edgeStyle=orthogonalEdgeStyle;rounded=0;orthogonalLoop=1;jettySize=auto;html=1;entryX=0;entryY=0.5;entryDx=0;entryDy=0;" edge="1" parent="1" source="gC_7pkf9eAkhHWgaOsjs-7" target="Ce8A14sFw2mneAr2ICW--24">
          <mxGeometry relative="1" as="geometry" />
        </mxCell>
        <mxCell id="gC_7pkf9eAkhHWgaOsjs-7" value="" style="image;aspect=fixed;html=1;points=[];align=center;fontSize=12;image=img/lib/azure2/identity/Verification_As_A_Service.svg;" parent="1" vertex="1">
          <mxGeometry x="730" y="61" width="68" height="68" as="geometry" />
        </mxCell>
        <mxCell id="gC_7pkf9eAkhHWgaOsjs-10" value="Role Verification" style="text;html=1;align=center;verticalAlign=middle;whiteSpace=wrap;rounded=0;" parent="1" vertex="1">
          <mxGeometry x="734" y="129" width="60" height="30" as="geometry" />
        </mxCell>
        <mxCell id="gC_7pkf9eAkhHWgaOsjs-13" value="Is this account verified?" style="text;html=1;align=center;verticalAlign=middle;whiteSpace=wrap;rounded=0;" parent="1" vertex="1">
          <mxGeometry x="496.6" y="85" width="60" height="30" as="geometry" />
        </mxCell>
        <mxCell id="Ce8A14sFw2mneAr2ICW--8" style="edgeStyle=orthogonalEdgeStyle;rounded=0;orthogonalLoop=1;jettySize=auto;html=1;dashed=1;" edge="1" parent="1" source="gC_7pkf9eAkhHWgaOsjs-15" target="gC_7pkf9eAkhHWgaOsjs-3">
          <mxGeometry relative="1" as="geometry">
            <Array as="points">
              <mxPoint x="370" y="290" />
              <mxPoint x="370" y="350" />
              <mxPoint x="260" y="350" />
            </Array>
          </mxGeometry>
        </mxCell>
        <mxCell id="gC_7pkf9eAkhHWgaOsjs-15" value="" style="image;aspect=fixed;html=1;points=[];align=center;fontSize=12;image=img/lib/azure2/identity/Entra_Verified_ID.svg;" parent="1" vertex="1">
          <mxGeometry x="565.8999999999999" y="235.1" width="68" height="60.440000000000005" as="geometry" />
        </mxCell>
        <mxCell id="Ce8A14sFw2mneAr2ICW--1" style="edgeStyle=orthogonalEdgeStyle;rounded=0;orthogonalLoop=1;jettySize=auto;html=1;" edge="1" parent="1" source="gC_7pkf9eAkhHWgaOsjs-16">
          <mxGeometry relative="1" as="geometry">
            <mxPoint x="519.3" y="423.4" as="targetPoint" />
            <Array as="points">
              <mxPoint x="600.3" y="353.4" />
              <mxPoint x="520.3" y="353.4" />
            </Array>
          </mxGeometry>
        </mxCell>
        <mxCell id="gC_7pkf9eAkhHWgaOsjs-16" value="ID Verification Service" style="text;html=1;align=center;verticalAlign=middle;whiteSpace=wrap;rounded=0;" parent="1" vertex="1">
          <mxGeometry x="569.8999999999999" y="295.09999999999997" width="60" height="30" as="geometry" />
        </mxCell>
        <mxCell id="Ce8A14sFw2mneAr2ICW--9" style="edgeStyle=orthogonalEdgeStyle;rounded=0;orthogonalLoop=1;jettySize=auto;html=1;dashed=1;" edge="1" parent="1" source="gC_7pkf9eAkhHWgaOsjs-20" target="gC_7pkf9eAkhHWgaOsjs-3">
          <mxGeometry relative="1" as="geometry">
            <Array as="points">
              <mxPoint x="330" y="255" />
              <mxPoint x="330" y="255" />
            </Array>
          </mxGeometry>
        </mxCell>
        <mxCell id="gC_7pkf9eAkhHWgaOsjs-20" value="" style="points=[];aspect=fixed;html=1;align=center;shadow=0;dashed=0;fillColor=#FF6A00;strokeColor=none;shape=mxgraph.alibaba_cloud.face_recognition;" parent="1" vertex="1">
          <mxGeometry x="425.6" y="231.70000000000002" width="47.400000000000006" height="46.800000000000004" as="geometry" />
        </mxCell>
        <mxCell id="HgqSSNmQoXdVTZQls64a-61" style="edgeStyle=orthogonalEdgeStyle;rounded=0;orthogonalLoop=1;jettySize=auto;html=1;" parent="1" source="gC_7pkf9eAkhHWgaOsjs-21" edge="1">
          <mxGeometry relative="1" as="geometry">
            <mxPoint x="519.3" y="425.1000000000002" as="targetPoint" />
            <Array as="points">
              <mxPoint x="449.3" y="353.4" />
              <mxPoint x="520.3" y="353.4" />
            </Array>
          </mxGeometry>
        </mxCell>
        <mxCell id="gC_7pkf9eAkhHWgaOsjs-21" value="Face Recognition Service" style="text;html=1;align=center;verticalAlign=middle;whiteSpace=wrap;rounded=0;" parent="1" vertex="1">
          <mxGeometry x="419.3" y="305.09999999999997" width="60" height="30" as="geometry" />
        </mxCell>
        <mxCell id="Ce8A14sFw2mneAr2ICW--40" style="edgeStyle=orthogonalEdgeStyle;rounded=0;orthogonalLoop=1;jettySize=auto;html=1;" edge="1" parent="1" source="gC_7pkf9eAkhHWgaOsjs-23">
          <mxGeometry relative="1" as="geometry">
            <mxPoint x="520.6500000000001" y="835.1" as="targetPoint" />
          </mxGeometry>
        </mxCell>
        <mxCell id="Ce8A14sFw2mneAr2ICW--53" style="edgeStyle=orthogonalEdgeStyle;rounded=0;orthogonalLoop=1;jettySize=auto;html=1;" edge="1" parent="1" source="gC_7pkf9eAkhHWgaOsjs-23" target="Ce8A14sFw2mneAr2ICW--38">
          <mxGeometry relative="1" as="geometry">
            <Array as="points">
              <mxPoint x="310" y="696" />
              <mxPoint x="310" y="480" />
            </Array>
          </mxGeometry>
        </mxCell>
        <mxCell id="gC_7pkf9eAkhHWgaOsjs-23" value="" style="rhombus;whiteSpace=wrap;html=1;fillColor=#a20025;fontColor=#ffffff;strokeColor=#6F0000;" parent="1" vertex="1">
          <mxGeometry x="460.65000000000003" y="640.2" width="120" height="110" as="geometry" />
        </mxCell>
        <mxCell id="gC_7pkf9eAkhHWgaOsjs-25" value="ID + Face + Personal Info Match?" style="text;html=1;align=center;verticalAlign=middle;whiteSpace=wrap;rounded=0;" parent="1" vertex="1">
          <mxGeometry x="490.65000000000003" y="680.2" width="60" height="30" as="geometry" />
        </mxCell>
        <mxCell id="gC_7pkf9eAkhHWgaOsjs-29" value="&lt;font&gt;user&lt;/font&gt;" style="sketch=0;outlineConnect=0;fontColor=#000000;gradientColor=none;strokeColor=#232F3E;fillColor=#ffffff;dashed=0;verticalLabelPosition=bottom;verticalAlign=top;align=center;html=1;fontSize=14;fontStyle=0;aspect=fixed;shape=mxgraph.aws4.resourceIcon;resIcon=mxgraph.aws4.user;fontFamily=Times New Roman;" parent="1" vertex="1">
          <mxGeometry x="15.000000000000007" y="801.1" width="60" height="60" as="geometry" />
        </mxCell>
        <mxCell id="HgqSSNmQoXdVTZQls64a-6" style="edgeStyle=orthogonalEdgeStyle;rounded=0;orthogonalLoop=1;jettySize=auto;html=1;entryX=0.5;entryY=0;entryDx=0;entryDy=0;" parent="1" source="HgqSSNmQoXdVTZQls64a-3" target="gC_7pkf9eAkhHWgaOsjs-23" edge="1">
          <mxGeometry relative="1" as="geometry" />
        </mxCell>
        <mxCell id="HgqSSNmQoXdVTZQls64a-3" value="" style="rounded=1;whiteSpace=wrap;html=1;fillColor=#e3c800;strokeColor=#B09500;fontColor=#000000;" parent="1" vertex="1">
          <mxGeometry x="461.3500000000001" y="540.3000000000001" width="120" height="60" as="geometry" />
        </mxCell>
        <mxCell id="HgqSSNmQoXdVTZQls64a-4" value="Pending Account" style="text;html=1;align=center;verticalAlign=middle;whiteSpace=wrap;rounded=0;" parent="1" vertex="1">
          <mxGeometry x="491.3500000000001" y="555.3000000000001" width="60" height="30" as="geometry" />
        </mxCell>
        <mxCell id="HgqSSNmQoXdVTZQls64a-21" value="No" style="text;html=1;align=center;verticalAlign=middle;whiteSpace=wrap;rounded=0;" parent="1" vertex="1">
          <mxGeometry x="460.65000000000003" y="751.3000000000001" width="60" height="30" as="geometry" />
        </mxCell>
        <mxCell id="Ce8A14sFw2mneAr2ICW--36" style="edgeStyle=orthogonalEdgeStyle;rounded=0;orthogonalLoop=1;jettySize=auto;html=1;entryX=0;entryY=0.5;entryDx=0;entryDy=0;" edge="1" parent="1" source="HgqSSNmQoXdVTZQls64a-23" target="HgqSSNmQoXdVTZQls64a-55">
          <mxGeometry relative="1" as="geometry">
            <Array as="points">
              <mxPoint x="1240" y="929" />
            </Array>
          </mxGeometry>
        </mxCell>
        <mxCell id="HgqSSNmQoXdVTZQls64a-23" value="" style="rounded=1;whiteSpace=wrap;html=1;" parent="1" vertex="1">
          <mxGeometry x="1173.26" y="580.1" width="120" height="60" as="geometry" />
        </mxCell>
        <mxCell id="HgqSSNmQoXdVTZQls64a-24" value="Voting Service" style="text;html=1;align=center;verticalAlign=middle;whiteSpace=wrap;rounded=0;" parent="1" vertex="1">
          <mxGeometry x="1203.26" y="595.1" width="60" height="30" as="geometry" />
        </mxCell>
        <mxCell id="HgqSSNmQoXdVTZQls64a-31" style="edgeStyle=orthogonalEdgeStyle;rounded=0;orthogonalLoop=1;jettySize=auto;html=1;dashed=1;" parent="1" source="HgqSSNmQoXdVTZQls64a-26" edge="1">
          <mxGeometry relative="1" as="geometry">
            <mxPoint x="1453.2649999999999" y="751.1" as="targetPoint" />
          </mxGeometry>
        </mxCell>
        <mxCell id="HgqSSNmQoXdVTZQls64a-45" style="edgeStyle=orthogonalEdgeStyle;rounded=0;orthogonalLoop=1;jettySize=auto;html=1;entryX=0.5;entryY=1;entryDx=0;entryDy=0;" parent="1" source="HgqSSNmQoXdVTZQls64a-26" target="HgqSSNmQoXdVTZQls64a-35" edge="1">
          <mxGeometry relative="1" as="geometry" />
        </mxCell>
        <mxCell id="HgqSSNmQoXdVTZQls64a-26" value="" style="points=[];aspect=fixed;html=1;align=center;shadow=0;dashed=0;fillColor=#FF6A00;strokeColor=none;shape=mxgraph.alibaba_cloud.baas_blockchain_as_a_service;" parent="1" vertex="1">
          <mxGeometry x="1420" y="573.6" width="66.53" height="73" as="geometry" />
        </mxCell>
        <mxCell id="HgqSSNmQoXdVTZQls64a-28" value="Vote" style="text;html=1;align=center;verticalAlign=middle;whiteSpace=wrap;rounded=0;" parent="1" vertex="1">
          <mxGeometry x="1320" y="571.1" width="60" height="30" as="geometry" />
        </mxCell>
        <mxCell id="HgqSSNmQoXdVTZQls64a-29" style="edgeStyle=orthogonalEdgeStyle;rounded=0;orthogonalLoop=1;jettySize=auto;html=1;entryX=0.045;entryY=0.5;entryDx=0;entryDy=0;entryPerimeter=0;" parent="1" source="HgqSSNmQoXdVTZQls64a-23" target="HgqSSNmQoXdVTZQls64a-26" edge="1">
          <mxGeometry relative="1" as="geometry" />
        </mxCell>
        <mxCell id="HgqSSNmQoXdVTZQls64a-30" value="" style="sketch=0;pointerEvents=1;shadow=0;dashed=0;html=1;strokeColor=none;fillColor=#FFFFFF;aspect=fixed;labelPosition=center;verticalLabelPosition=bottom;verticalAlign=top;align=center;outlineConnect=0;shape=mxgraph.vvd.log_files;" parent="1" vertex="1">
          <mxGeometry x="1420" y="761.1" width="72" height="90" as="geometry" />
        </mxCell>
        <mxCell id="HgqSSNmQoXdVTZQls64a-35" value="" style="rounded=1;whiteSpace=wrap;html=1;fillColor=#d5e8d4;strokeColor=#82b366;" parent="1" vertex="1">
          <mxGeometry x="1183.26" y="235.1" width="540" height="186" as="geometry" />
        </mxCell>
        <mxCell id="HgqSSNmQoXdVTZQls64a-36" value="Candidates" style="text;html=1;align=center;verticalAlign=middle;whiteSpace=wrap;rounded=0;fontFamily=Times New Roman;fontColor=#000000;fontSize=18;fontStyle=1" parent="1" vertex="1">
          <mxGeometry x="1213.26" y="256.1" width="60" height="30" as="geometry" />
        </mxCell>
        <mxCell id="HgqSSNmQoXdVTZQls64a-37" value="" style="image;aspect=fixed;perimeter=ellipsePerimeter;html=1;align=center;shadow=0;dashed=0;fontColor=#4277BB;labelBackgroundColor=default;fontSize=12;spacingTop=3;image=img/lib/ibm/blockchain/smart_contract.svg;" parent="1" vertex="1">
          <mxGeometry x="1293.26" y="241.1" width="60" height="60" as="geometry" />
        </mxCell>
        <mxCell id="HgqSSNmQoXdVTZQls64a-38" value="&lt;font&gt;candidate&lt;/font&gt;" style="sketch=0;outlineConnect=0;fontColor=light-dark(#232F3E, #000000);gradientColor=none;strokeColor=#232F3E;fillColor=#ffffff;dashed=0;verticalLabelPosition=bottom;verticalAlign=top;align=center;html=1;fontSize=14;fontStyle=0;aspect=fixed;shape=mxgraph.aws4.resourceIcon;resIcon=mxgraph.aws4.user;fontFamily=Times New Roman;" parent="1" vertex="1">
          <mxGeometry x="1213.26" y="316.1" width="60" height="60" as="geometry" />
        </mxCell>
        <mxCell id="HgqSSNmQoXdVTZQls64a-39" value="&lt;font&gt;candidate&lt;/font&gt;" style="sketch=0;outlineConnect=0;fontColor=light-dark(#232F3E, #000000);gradientColor=none;strokeColor=#232F3E;fillColor=#ffffff;dashed=0;verticalLabelPosition=bottom;verticalAlign=top;align=center;html=1;fontSize=14;fontStyle=0;aspect=fixed;shape=mxgraph.aws4.resourceIcon;resIcon=mxgraph.aws4.user;fontFamily=Times New Roman;" parent="1" vertex="1">
          <mxGeometry x="1283.26" y="316.1" width="60" height="60" as="geometry" />
        </mxCell>
        <mxCell id="HgqSSNmQoXdVTZQls64a-40" value="&lt;font&gt;candidate&lt;/font&gt;" style="sketch=0;outlineConnect=0;fontColor=light-dark(#232F3E, #000000);gradientColor=none;strokeColor=#232F3E;fillColor=#ffffff;dashed=0;verticalLabelPosition=bottom;verticalAlign=top;align=center;html=1;fontSize=14;fontStyle=0;aspect=fixed;shape=mxgraph.aws4.resourceIcon;resIcon=mxgraph.aws4.user;fontFamily=Times New Roman;" parent="1" vertex="1">
          <mxGeometry x="1353.26" y="316.1" width="60" height="60" as="geometry" />
        </mxCell>
        <mxCell id="HgqSSNmQoXdVTZQls64a-41" value="&lt;font&gt;candidate&lt;/font&gt;" style="sketch=0;outlineConnect=0;fontColor=light-dark(#232F3E, #000000);gradientColor=none;strokeColor=#232F3E;fillColor=#ffffff;dashed=0;verticalLabelPosition=bottom;verticalAlign=top;align=center;html=1;fontSize=14;fontStyle=0;aspect=fixed;shape=mxgraph.aws4.resourceIcon;resIcon=mxgraph.aws4.user;fontFamily=Times New Roman;" parent="1" vertex="1">
          <mxGeometry x="1423.26" y="316.1" width="60" height="60" as="geometry" />
        </mxCell>
        <mxCell id="HgqSSNmQoXdVTZQls64a-42" value="&lt;font&gt;candidate&lt;/font&gt;" style="sketch=0;outlineConnect=0;fontColor=light-dark(#232F3E, #000000);gradientColor=none;strokeColor=#232F3E;fillColor=#ffffff;dashed=0;verticalLabelPosition=bottom;verticalAlign=top;align=center;html=1;fontSize=14;fontStyle=0;aspect=fixed;shape=mxgraph.aws4.resourceIcon;resIcon=mxgraph.aws4.user;fontFamily=Times New Roman;" parent="1" vertex="1">
          <mxGeometry x="1493.26" y="316.1" width="60" height="60" as="geometry" />
        </mxCell>
        <mxCell id="HgqSSNmQoXdVTZQls64a-43" value="&lt;font&gt;candidate&lt;/font&gt;" style="sketch=0;outlineConnect=0;fontColor=light-dark(#232F3E, #000000);gradientColor=none;strokeColor=#232F3E;fillColor=#ffffff;dashed=0;verticalLabelPosition=bottom;verticalAlign=top;align=center;html=1;fontSize=14;fontStyle=0;aspect=fixed;shape=mxgraph.aws4.resourceIcon;resIcon=mxgraph.aws4.user;fontFamily=Times New Roman;" parent="1" vertex="1">
          <mxGeometry x="1563.26" y="316.1" width="60" height="60" as="geometry" />
        </mxCell>
        <mxCell id="HgqSSNmQoXdVTZQls64a-44" value="&lt;font&gt;candidate&lt;/font&gt;" style="sketch=0;outlineConnect=0;fontColor=light-dark(#232F3E, #000000);gradientColor=none;strokeColor=#232F3E;fillColor=#ffffff;dashed=0;verticalLabelPosition=bottom;verticalAlign=top;align=center;html=1;fontSize=14;fontStyle=0;aspect=fixed;shape=mxgraph.aws4.resourceIcon;resIcon=mxgraph.aws4.user;fontFamily=Times New Roman;" parent="1" vertex="1">
          <mxGeometry x="1633.26" y="316.1" width="60" height="60" as="geometry" />
        </mxCell>
        <mxCell id="HgqSSNmQoXdVTZQls64a-56" style="edgeStyle=orthogonalEdgeStyle;rounded=0;orthogonalLoop=1;jettySize=auto;html=1;entryX=0.5;entryY=0;entryDx=0;entryDy=0;" parent="1" source="HgqSSNmQoXdVTZQls64a-46" target="HgqSSNmQoXdVTZQls64a-55" edge="1">
          <mxGeometry relative="1" as="geometry" />
        </mxCell>
        <mxCell id="HgqSSNmQoXdVTZQls64a-46" value="" style="strokeWidth=2;html=1;shape=mxgraph.flowchart.database;whiteSpace=wrap;fillColor=#f8cecc;strokeColor=#b85450;" parent="1" vertex="1">
          <mxGeometry x="1650" y="565.1" width="90" height="90" as="geometry" />
        </mxCell>
        <mxCell id="HgqSSNmQoXdVTZQls64a-47" style="edgeStyle=orthogonalEdgeStyle;rounded=0;orthogonalLoop=1;jettySize=auto;html=1;entryX=0;entryY=0.5;entryDx=0;entryDy=0;entryPerimeter=0;" parent="1" source="HgqSSNmQoXdVTZQls64a-26" target="HgqSSNmQoXdVTZQls64a-46" edge="1">
          <mxGeometry relative="1" as="geometry" />
        </mxCell>
        <mxCell id="Ce8A14sFw2mneAr2ICW--54" style="edgeStyle=orthogonalEdgeStyle;rounded=0;orthogonalLoop=1;jettySize=auto;html=1;entryX=0.5;entryY=0;entryDx=0;entryDy=0;" edge="1" parent="1" source="HgqSSNmQoXdVTZQls64a-48" target="HgqSSNmQoXdVTZQls64a-3">
          <mxGeometry relative="1" as="geometry" />
        </mxCell>
        <mxCell id="HgqSSNmQoXdVTZQls64a-48" value="" style="strokeWidth=2;html=1;shape=mxgraph.flowchart.database;whiteSpace=wrap;fillColor=#f8cecc;strokeColor=#b85450;fontFamily=Times New Roman;fontColor=#000000;" parent="1" vertex="1">
          <mxGeometry x="492.00000000000006" y="430.09999999999997" width="60" height="60" as="geometry" />
        </mxCell>
        <mxCell id="HgqSSNmQoXdVTZQls64a-49" value="NoSQL Database" style="text;html=1;align=center;verticalAlign=middle;whiteSpace=wrap;rounded=0;fontFamily=Times New Roman;fontColor=#000000;" parent="1" vertex="1">
          <mxGeometry x="492.00000000000006" y="450.09999999999997" width="60" height="30" as="geometry" />
        </mxCell>
        <mxCell id="HgqSSNmQoXdVTZQls64a-54" value="&lt;font style=&quot;&quot;&gt;SQL Database&lt;/font&gt;" style="text;html=1;align=center;verticalAlign=middle;whiteSpace=wrap;rounded=0;fontSize=14;fontFamily=Times New Roman;fontColor=#000000;" parent="1" vertex="1">
          <mxGeometry x="1665" y="600.1" width="60" height="30" as="geometry" />
        </mxCell>
        <mxCell id="HgqSSNmQoXdVTZQls64a-57" value="Exit Polls" style="text;html=1;align=center;verticalAlign=middle;whiteSpace=wrap;rounded=0;" parent="1" vertex="1">
          <mxGeometry x="1665" y="970.9999999999999" width="60" height="30" as="geometry" />
        </mxCell>
        <mxCell id="HgqSSNmQoXdVTZQls64a-55" value="" style="image;html=1;image=img/lib/clip_art/finance/Pie_Chart_128x128.png" parent="1" vertex="1">
          <mxGeometry x="1640" y="876" width="110" height="105" as="geometry" />
        </mxCell>
        <mxCell id="bP8R0NQ_yirpy0KztJYJ-12" value="Login" style="html=1;whiteSpace=wrap;strokeColor=none;fillColor=#0079D6;labelPosition=center;verticalLabelPosition=middle;verticalAlign=top;align=center;fontSize=12;outlineConnect=0;spacingTop=-6;fontColor=#FFFFFF;sketch=0;shape=mxgraph.sitemap.login;" vertex="1" parent="1">
          <mxGeometry x="463.35" y="971.5000000000001" width="120" height="70" as="geometry" />
        </mxCell>
        <mxCell id="Ce8A14sFw2mneAr2ICW--3" style="edgeStyle=orthogonalEdgeStyle;rounded=0;orthogonalLoop=1;jettySize=auto;html=1;entryX=0.515;entryY=0.177;entryDx=0;entryDy=0;entryPerimeter=0;" edge="1" parent="1" source="bP8R0NQ_yirpy0KztJYJ-9" target="gC_7pkf9eAkhHWgaOsjs-20">
          <mxGeometry relative="1" as="geometry">
            <Array as="points">
              <mxPoint x="527" y="190" />
              <mxPoint x="450" y="190" />
            </Array>
          </mxGeometry>
        </mxCell>
        <mxCell id="Ce8A14sFw2mneAr2ICW--4" style="edgeStyle=orthogonalEdgeStyle;rounded=0;orthogonalLoop=1;jettySize=auto;html=1;entryX=0.487;entryY=-0.002;entryDx=0;entryDy=0;entryPerimeter=0;" edge="1" parent="1" source="bP8R0NQ_yirpy0KztJYJ-9" target="gC_7pkf9eAkhHWgaOsjs-15">
          <mxGeometry relative="1" as="geometry">
            <Array as="points">
              <mxPoint x="527" y="190" />
              <mxPoint x="599" y="190" />
            </Array>
          </mxGeometry>
        </mxCell>
        <mxCell id="Ce8A14sFw2mneAr2ICW--5" value="No" style="text;html=1;align=center;verticalAlign=middle;whiteSpace=wrap;rounded=0;" vertex="1" parent="1">
          <mxGeometry x="466.6" y="155" width="60" height="30" as="geometry" />
        </mxCell>
        <mxCell id="Ce8A14sFw2mneAr2ICW--6" style="edgeStyle=orthogonalEdgeStyle;rounded=0;orthogonalLoop=1;jettySize=auto;html=1;entryX=0.059;entryY=0.574;entryDx=0;entryDy=0;entryPerimeter=0;" edge="1" parent="1" source="bP8R0NQ_yirpy0KztJYJ-9" target="gC_7pkf9eAkhHWgaOsjs-7">
          <mxGeometry relative="1" as="geometry" />
        </mxCell>
        <mxCell id="Ce8A14sFw2mneAr2ICW--7" value="Yes" style="text;html=1;align=center;verticalAlign=middle;whiteSpace=wrap;rounded=0;" vertex="1" parent="1">
          <mxGeometry x="587" y="70" width="60" height="30" as="geometry" />
        </mxCell>
        <mxCell id="Ce8A14sFw2mneAr2ICW--11" value="Register Page" style="text;html=1;align=center;verticalAlign=middle;whiteSpace=wrap;rounded=0;" vertex="1" parent="1">
          <mxGeometry x="496" y="1041.5" width="60" height="30" as="geometry" />
        </mxCell>
        <mxCell id="Ce8A14sFw2mneAr2ICW--12" value="" style="rounded=1;whiteSpace=wrap;html=1;" vertex="1" parent="1">
          <mxGeometry x="920" y="200" width="120" height="60" as="geometry" />
        </mxCell>
        <mxCell id="Ce8A14sFw2mneAr2ICW--13" value="Profile Page" style="text;html=1;align=center;verticalAlign=middle;whiteSpace=wrap;rounded=0;" vertex="1" parent="1">
          <mxGeometry x="950" y="215" width="60" height="30" as="geometry" />
        </mxCell>
        <mxCell id="Ce8A14sFw2mneAr2ICW--14" value="" style="rounded=1;whiteSpace=wrap;html=1;" vertex="1" parent="1">
          <mxGeometry x="920" y="325.1" width="120" height="60" as="geometry" />
        </mxCell>
        <mxCell id="Ce8A14sFw2mneAr2ICW--15" value="Political Parties Page" style="text;html=1;align=center;verticalAlign=middle;whiteSpace=wrap;rounded=0;" vertex="1" parent="1">
          <mxGeometry x="950" y="340.1" width="60" height="30" as="geometry" />
        </mxCell>
        <mxCell id="Ce8A14sFw2mneAr2ICW--16" value="" style="rounded=1;whiteSpace=wrap;html=1;" vertex="1" parent="1">
          <mxGeometry x="920" y="460.1" width="120" height="60" as="geometry" />
        </mxCell>
        <mxCell id="Ce8A14sFw2mneAr2ICW--17" value="Candidates Page" style="text;html=1;align=center;verticalAlign=middle;whiteSpace=wrap;rounded=0;" vertex="1" parent="1">
          <mxGeometry x="950" y="475.1" width="60" height="30" as="geometry" />
        </mxCell>
        <mxCell id="Ce8A14sFw2mneAr2ICW--33" style="edgeStyle=orthogonalEdgeStyle;rounded=0;orthogonalLoop=1;jettySize=auto;html=1;entryX=0;entryY=0.5;entryDx=0;entryDy=0;" edge="1" parent="1" source="Ce8A14sFw2mneAr2ICW--18" target="HgqSSNmQoXdVTZQls64a-23">
          <mxGeometry relative="1" as="geometry" />
        </mxCell>
        <mxCell id="Ce8A14sFw2mneAr2ICW--18" value="" style="rounded=1;whiteSpace=wrap;html=1;" vertex="1" parent="1">
          <mxGeometry x="920" y="580.1" width="120" height="60" as="geometry" />
        </mxCell>
        <mxCell id="Ce8A14sFw2mneAr2ICW--19" value="Voting Page" style="text;html=1;align=center;verticalAlign=middle;whiteSpace=wrap;rounded=0;" vertex="1" parent="1">
          <mxGeometry x="950" y="595.1" width="60" height="30" as="geometry" />
        </mxCell>
        <mxCell id="Ce8A14sFw2mneAr2ICW--20" value="" style="rounded=1;whiteSpace=wrap;html=1;" vertex="1" parent="1">
          <mxGeometry x="920" y="715.1" width="120" height="60" as="geometry" />
        </mxCell>
        <mxCell id="Ce8A14sFw2mneAr2ICW--21" value="Statistics Page" style="text;html=1;align=center;verticalAlign=middle;whiteSpace=wrap;rounded=0;" vertex="1" parent="1">
          <mxGeometry x="950" y="730.1" width="60" height="30" as="geometry" />
        </mxCell>
        <mxCell id="Ce8A14sFw2mneAr2ICW--22" value="" style="rounded=1;whiteSpace=wrap;html=1;" vertex="1" parent="1">
          <mxGeometry x="920" y="831" width="120" height="60" as="geometry" />
        </mxCell>
        <mxCell id="Ce8A14sFw2mneAr2ICW--23" value="Document Upload Page" style="text;html=1;align=center;verticalAlign=middle;whiteSpace=wrap;rounded=0;" vertex="1" parent="1">
          <mxGeometry x="950" y="846" width="60" height="30" as="geometry" />
        </mxCell>
        <mxCell id="Ce8A14sFw2mneAr2ICW--24" value="" style="rounded=1;whiteSpace=wrap;html=1;" vertex="1" parent="1">
          <mxGeometry x="920" y="966" width="120" height="60" as="geometry" />
        </mxCell>
        <mxCell id="Ce8A14sFw2mneAr2ICW--25" value="Physical Voting Locations Page" style="text;html=1;align=center;verticalAlign=middle;whiteSpace=wrap;rounded=0;" vertex="1" parent="1">
          <mxGeometry x="950" y="981" width="60" height="30" as="geometry" />
        </mxCell>
        <mxCell id="Ce8A14sFw2mneAr2ICW--30" style="edgeStyle=orthogonalEdgeStyle;rounded=0;orthogonalLoop=1;jettySize=auto;html=1;entryX=0;entryY=0.648;entryDx=0;entryDy=0;entryPerimeter=0;" edge="1" parent="1" source="gC_7pkf9eAkhHWgaOsjs-7" target="Ce8A14sFw2mneAr2ICW--20">
          <mxGeometry relative="1" as="geometry" />
        </mxCell>
        <mxCell id="Ce8A14sFw2mneAr2ICW--35" value="App" style="swimlane;fillColor=#1ba1e2;fontColor=#ffffff;strokeColor=#006EAF;" vertex="1" parent="1">
          <mxGeometry x="840" y="15" width="930" height="1025" as="geometry" />
        </mxCell>
        <mxCell id="Ce8A14sFw2mneAr2ICW--37" value="" style="dashed=0;outlineConnect=0;html=1;align=center;labelPosition=center;verticalLabelPosition=bottom;verticalAlign=top;shape=mxgraph.weblogos.gmail" vertex="1" parent="1">
          <mxGeometry x="489.35" y="841.1" width="64.8" height="46.800000000000004" as="geometry" />
        </mxCell>
        <mxCell id="Ce8A14sFw2mneAr2ICW--38" value="" style="dashed=0;outlineConnect=0;html=1;align=center;labelPosition=center;verticalLabelPosition=bottom;verticalAlign=top;shape=mxgraph.weblogos.gmail" vertex="1" parent="1">
          <mxGeometry x="34" y="450.1" width="64.8" height="46.800000000000004" as="geometry" />
        </mxCell>
        <mxCell id="Ce8A14sFw2mneAr2ICW--43" style="edgeStyle=orthogonalEdgeStyle;rounded=0;orthogonalLoop=1;jettySize=auto;html=1;" edge="1" parent="1" source="Ce8A14sFw2mneAr2ICW--42" target="bP8R0NQ_yirpy0KztJYJ-12">
          <mxGeometry relative="1" as="geometry" />
        </mxCell>
        <mxCell id="Ce8A14sFw2mneAr2ICW--42" value="Rejectance mail" style="text;html=1;align=center;verticalAlign=middle;whiteSpace=wrap;rounded=0;" vertex="1" parent="1">
          <mxGeometry x="492.95000000000005" y="896.1" width="60" height="30" as="geometry" />
        </mxCell>
        <mxCell id="Ce8A14sFw2mneAr2ICW--44" value="Acceptance mail" style="text;html=1;align=center;verticalAlign=middle;whiteSpace=wrap;rounded=0;" vertex="1" parent="1">
          <mxGeometry x="36.400000000000034" y="505.1" width="60" height="30" as="geometry" />
        </mxCell>
        <mxCell id="Ce8A14sFw2mneAr2ICW--49" style="edgeStyle=orthogonalEdgeStyle;rounded=0;orthogonalLoop=1;jettySize=auto;html=1;entryX=0;entryY=1;entryDx=0;entryDy=0;" edge="1" parent="1" source="Ce8A14sFw2mneAr2ICW--47" target="gfaHNzCH5bzECuTe03nf-2">
          <mxGeometry relative="1" as="geometry">
            <Array as="points">
              <mxPoint x="66" y="200" />
              <mxPoint x="200" y="200" />
            </Array>
          </mxGeometry>
        </mxCell>
        <mxCell id="Ce8A14sFw2mneAr2ICW--47" value="" style="html=1;verticalLabelPosition=bottom;align=center;labelBackgroundColor=#ffffff;verticalAlign=top;strokeWidth=2;strokeColor=#0080F0;shadow=0;dashed=0;shape=mxgraph.ios7.icons.link;" vertex="1" parent="1">
          <mxGeometry x="51" y="286" width="30" height="30" as="geometry" />
        </mxCell>
        <mxCell id="Ce8A14sFw2mneAr2ICW--48" style="edgeStyle=orthogonalEdgeStyle;rounded=0;orthogonalLoop=1;jettySize=auto;html=1;entryX=0.5;entryY=0.933;entryDx=0;entryDy=0;entryPerimeter=0;" edge="1" parent="1" source="Ce8A14sFw2mneAr2ICW--38" target="Ce8A14sFw2mneAr2ICW--47">
          <mxGeometry relative="1" as="geometry" />
        </mxCell>
        <mxCell id="Ce8A14sFw2mneAr2ICW--51" value="Yes" style="text;html=1;align=center;verticalAlign=middle;whiteSpace=wrap;rounded=0;" vertex="1" parent="1">
          <mxGeometry x="409.3" y="661.1" width="60" height="30" as="geometry" />
        </mxCell>
      </root>
    </mxGraphModel>
  </diagram>
  <diagram id="nphgZtFlUgYKpJdByWJ6" name="Architecture Diagram">
    <mxGraphModel dx="1428" dy="849" grid="1" gridSize="10" guides="1" tooltips="1" connect="1" arrows="1" fold="1" page="1" pageScale="1" pageWidth="850" pageHeight="1100" math="0" shadow="0">
      <root>
        <mxCell id="0" />
        <mxCell id="1" parent="0" />
        <mxCell id="WbC4r-EGkHE_0QC-VvXs-5" style="edgeStyle=orthogonalEdgeStyle;rounded=0;orthogonalLoop=1;jettySize=auto;html=1;entryX=0;entryY=0.5;entryDx=0;entryDy=0;" edge="1" parent="1" source="WbC4r-EGkHE_0QC-VvXs-1" target="WbC4r-EGkHE_0QC-VvXs-3">
          <mxGeometry relative="1" as="geometry" />
        </mxCell>
        <mxCell id="WbC4r-EGkHE_0QC-VvXs-1" value="" style="image;aspect=fixed;perimeter=ellipsePerimeter;html=1;align=center;shadow=0;dashed=0;spacingTop=3;image=img/lib/active_directory/workstation_client.svg;" vertex="1" parent="1">
          <mxGeometry x="30" y="30" width="59.5" height="70" as="geometry" />
        </mxCell>
        <mxCell id="WbC4r-EGkHE_0QC-VvXs-2" value="Client" style="text;html=1;align=center;verticalAlign=middle;whiteSpace=wrap;rounded=0;" vertex="1" parent="1">
          <mxGeometry x="30" y="100" width="59.5" height="30" as="geometry" />
        </mxCell>
        <mxCell id="WbC4r-EGkHE_0QC-VvXs-3" value="" style="shape=image;verticalLabelPosition=bottom;verticalAlign=top;imageAspect=0;aspect=fixed;image=data:image/webp,UklGRiofAABXRUJQVlA4IB4fAADQ7ACdASpiA4oCPm02m0kmJSQiIpQIIMANiWdu/HyYaeAeD0q3yeH96rjZf0f90/bzYZO0/4f9rv7r+xXoJ5G+jfqf/hv7N+zfU2n19d/mT+V/dfzM+Zf+c9QH8K/z//V/P/6Af4P/Gf9B/Zf7x+1Xxgeo792/UN/Wf83+2Hv1+mX/eeoB/cv+j6/vqMf+71APLb/cv/7fKd/Vf9x+x3/m94z//+wB///a+/gH//6y/qV/sP7L7IPnv7F+vXqXrorwfzXgj2fP6vvD+VmoF+N/xn/DfbLw+IAf0P+1eqXM1/mdFXp13jZ47vf/tW+lCr9tR7uOVrokxt0SY26JMbdEmNuiTG3RJjbokxt0SY26JMbdEmNuiTG3RJjbokxt0SY26JMbdEmNuiTG3RJjbokxt0SY26JMbdEmNuiTG3RJjbokxt0SY26JMbdEmNuiTG3RJjbokxt0SY26JMbdEmNuiTG3RJjbokxt0SY26JMbdEmNuiTG3RJjbokxt0SY26JMbdEmNuiTG3RJjbNwFk//70GsQtFmdd1v1hpNqGMT7YKiVjb9rUkQshtt8jyJpv58kHCkkMhSSGQpJDIUkhkKSNkmJ2ydD4vUPvTskwI5TWv6j9gUtjZYJIZCkkMhSSGQpJDIUkhkKRpoLucrYs9U5Msm46toFynvFvaUr2GKava9a6JMbdEmNuiTG3RJjWtCAvwUBwX5GAqQYAC78QGvwXXY7d4QRJjbokxt0SY26JMbdEmJiuubNq9bWExjLmQRb3gMtgKiOU4EQ426JMUrDrXRJjbokxtmC9T8dVvTqFoldScq0MmrcIgsGfjRtkS5hxhAVzaTf1Hzj5IMoFB66ZkO9TLIkxt0SY26I80Pc5QQGW7+80t//ScbAYwpEmQ4l1ZyxIl4pUTeTwsWsZSvDf+gh/gpJBvrDaVY9Yb643wgX6xCkkMhSSGQjan5M8/ZckQX/CeMOGOUcdU4ZoI2Iw3aeoRrKKXn5AfbQEDL81I1ay0yuIDdGnREBK/jq+meFJIZCkkMfB0rKGVVD3cS0No925qYyiOU4EXAY3Vmu9HXIulLt+Vzz4QWISk/Gcpd/8wKKWwj8qfE3G1Hu45WuiSvxpr5HWLtR7vr47qz1sbtf7TszYibcXzzg5tIZkdJU7GPCVZJIZCkkMhSSPyY26JMax36NghzSzPOX1+XfpiogWwDCwokohGYYFcbUe7jla6JMbdEmNuiTFAhAV0rZtJKAjXIuqL2Dpgq6bvLxFVrg6HhdtR7uOVrokxt0SY26JMeLbKa8wCyc9YIFIXSG6BTDebcyhNyfy6MhSSGQpJDIUkhkKSQyFJIPiBZ0zHaKWIJx3ODu1ncvlggFybX35dxPZ0G9NcV8hkKSQyFJGvVCq6v8WMUYxQi4U0Yuv+my2DOT5zyaQ+KQi0wR0zM+j3ccrXRL/nfKoCMlAM/+MaG5DGUV6BflNzQlO2RWqN5SEmNuiTG3MN5Jjl/9cdvw3ghJjWSV3ytE82703OtUbUe7jlbW9nLrBFoqOVrokxtzEh6Sbm8X+2RT1CvXjyyVM0PyFGtJoa0xt0SY26JMbdEmNuiTG3RHZ9sjLRRmi9fk0rm4m2MUVCxQWnpUD7uOVrokxt0SY26JMbdEdHP2aRFmJM3J64m3F85SWQLTBdQ+CSQyFJIZCkkMhSSGQpJB7SJoQZWbzXtIXYZASbDBrsf/zFp6VA+7jlaykeKSMKGjM2jNjla6JMbcxZC1UkNDsuNigB87f9srml56udOm6wbjozhXWJWgYmyuExgiTE2h/OIaLfL7HK1zD89qKXQpL+gP537aj3ccrXQxcyndDxT9xrxFoR2HIrwq6cyX4nzpZ33EGEwqm28gw3o/dXJhEPIboZAaOn2/MfsQxsQq776Kjla6JMbcxenHKuGxVdtUOuTG3MPQzUR7JO6yHXmC9i+e4qpmCyemMiyxoWaHXJmYrH3lSb/XLF//Tu3NuHWh+2o93HK10SYmKmQ8SHy18kMhSSD3vGxKa97OUD1n3liM/ofR94KJQuI1/g/Pkg4UkhkKTOGjNjlbTOus1axSjo55fxXrm6CShEmTZGZItGjlePkg4UkhkKSQyFJIZCkkHvxTaIobEOM8lKur3SZHpt0TZqzGkczIa1Hu45WuiTG3RJjbokxtzDuKlKyVySBsYqEXYhdQkzHha7LJrGvOAMzG3RJjbokxt0SY26JMbdEv/ZgFr44KzoAOzxp6gpS5Nsb/yJQuGhmmRZIOFJIZCkkMhSSGQpJDIUkkSdmMVHS1NMaHF37yYO8xaaRyUzY1mpHB6jtyI1H7s/n3rZO9yQcKSQyFJIZCkkMhSSGQpJDIU7wf8trtb193HK10SY26JMbdEmNuiTG3RJjbokxt0SY26JMbdEmNuiTG3RJjbokxt0SY26JMbdEmNuiTG3RJjbokxt0SY26JMbdEmNuiTG3RJjbokxt0SY26JMbdEmNuiTG3RJjbokxt0SY26JMbdEmNuiTG3RJjbokxt0SY26JMbdEmNuiTG3RJiYAAP7+c2AAAAAAAAAAAAAAAAAAAAAAAAAAAAAAQjkmQYqnq3dhHdygCkmPBVrfYfriSAvHPN7CnIpArk7xh2yp/00Ou7HHFD8LOmumr2JfMR9SpQfgsSCzJJkiaPC62NFUuEC0dDOfLmn2yJYQ4DJ+evSoCFnZDwVrYg3QUO5XQHqkLlJMxsXACCHIff/Bm+eRq4TDWsjvQ/ax/edhqfP++NBKiRNZXZk+3qDEabDN8oHOpciE4rX03rJVemUJbHVf8C6uxhni0tNQEZC/1HYMXTDQ6IPrAiGZC1fOuGSvyyOr2e2vRfeLV6RGUFTpvBIfuoZ7h4o9vBOQ7fHpNIohV4l+q3eVuJeJRdR7ahr8HDFmaDE5+mhdWWqJKJGR0db7Khcu42bfU+FX8hhwMxm1cnvG3SUkH7SiBHlOuvv/Nce6+Lr5hwAACoKeiuXnqxSIxHzxlTuZ6Gz8N/zk+wQslcFKTuTOVxhulgLlz7dw3fvL045PxVdGNhgAIKRbRSCS42Av75d2yj5E/YSg4TPJgaRPRwImecxsPe3M34Rgz7x1FBACdN371l0EU6JmvGt6tLIOSs+MxFKVjeAtOA1Rtx7kg/HvyFAYw5kPO/clk6Wz3qPQxvGO6ITfbHFqBCYSIo71NgABNI/2UUk80yp3My0k2DCo/MH8iS/nwMjapVQ8hynghgvpRhciFH/bqEFPUUBs1UT142lJSHqj1aUwG/sb5uyERJLsilKwUnJSworqDn2PmZs4rpZ0kJ/26jecxYOGWCK4hfM6tItcMg//xvXcaFJLP6SDrk3nWA6xe5oANkLyX8I/lXxBMoAduAAAq9JQu7SBLe+yyzM0yfpPGIFPHFP9wYH9+6ybXRvnU7/E+HWtQvc2WUc8ssv8YnXp0Lqri28FTspkN5MR4hhzq8D/ZTBX+U+Y2zHhbO9uPbOPAPgf1iU0/2rCMc+tRdgPXQIOpCbeHCrYipeyXyFb0jejPuAAVdAvz585Qb4epkakDNIo6KRW+sTjIBXdpTJyPqRE3/bdXTNwqzPVqJHgb0ARaou3fpKkVyeieCLdVhQUQibmUzl7leB+KX6qXxNxJRdqfSQHtzTWbnHq/qsIYxvG3+zWVSMCvSaZ17w4CMlJ/UNkTqFzdALnP1voaiFZOgqhwkvSPJI0KQXLYc/uAsEsoGrrIc7f1cPz7BruUhlMj5w6C1YzfPkEVH39lOB6Kn6xJ9AuMtCRe/c6JJk+Gr2OtsPAdbkKgpb36Q4+2O1Akbuj3JeRDesOzCVpt/hAN8IBQixueio2YFotlST7cW1COPFo7aRkv+EJHUkyib9ecNfAuU9U8hzMuBoOP3HxYaNdHwXMoD4q0LuTDR2sjKL7A38JZsjJkf4f8CN5av2kL7LG5x6v6rCGMbxt/s1lUjAr0mmde8OAmEijQdcFfwinj0Js0dVuwKoFKI0gSlZX6QC4CAnwNQJkUe3gcwsiOkPgfznvGDh/i4NhaFCcwitjade8EmuWLOjC73Nu/iWSyBhkD74WgFLU+HU+PwU2AADgiA5Y1ZeG9mWKtDcrIcrsVtmYZelfXhz7m1PKGNDmuYWfWuAkKk008wuGCubfVR6sJWCMK9YRSqpsClE9WdaPE09vGnE0PcabjX7fbHxAm30O6nTG30TPnbog44dGuLIUxGBP+jb1A2rPxSzYRcY30K5XnyE5JjFJ0+0+GqInIy4NOHHdADWYO4X67VOJupn3Xjcr9T5UZI6wAWZ2KC0DBFIcXLD9inDS37rfcf15CF5bsyOEBVCYHxxueYT1Hszos6uUFeCaflvuBasrSUeGzC5uQz1uLkB02ncKo9pqqHIPP1GtvsCBwALiZb+o+uEk9I8kwUnJQ+IS9Uf/YApgF1yIZLEpXOXGcFho/8tUiSShqgP9fRIDRsP3S+erChSFPyCUvb9f3yPkU8EAVkhNarN06bOUaiGgPc1ruE7VYaVWntrJTVIZTZcCgL6ie4mo2bAXABGdkO8iOIl9Gp4ADpQOX7u8YX+vIMVMEnPbIOOHVO39SLbTzPtbfzpPmgOCVhErHvBgK543dgIWSJHjwVVMJaF7e2HyGpM/DhlIru79JcKS/mo4AJYozJ3tTwbhXKs6cRl36hOvRePH6TgOPNAeHPF+dXS0IA5BtL8Xoaq9H6d4DLXl4N8QcJdxxxAyPNkcn/FByo01ITJia8k4H2mU63HwMWM59IC/kYc/KmpklBWTTnyTvHKUS0jCF+e42J8ELVqvBF0Q3qxtUGi9Gp96Rd4LmlbOqrgDl3L2wfyZVDYfdI/cU1XICxzKWRIamuGgpMvSpsXciw+grWuYsi+n/4+1sUTe4LjdTLXMFl4vQ6AnatGYuKXJuSljU2hpBdUy1kAZ3xh/Akgp1FzYI8WnjtPMGHfBb8GOVKiG0AVVk67MpVWUmEICRfP8XiyoDa/7j+slVq/F+RwBhWpBBvoq7AI+KShgvHT4p99wbHhp6lb/0an6RRZ2z1koNblRgKy99ati1eAI6eTvpmg1ezqV/m8lJY/mZwEBtx9lIM4+6YQm+oJos6TOHr8c94NFvrZ8DasMkAeenPZzsNhM45ZxyN3bFBfPQEDXSWPSdFRApuGFNYpcjba6MzRFhDqIp935DcRK9girdaMlI9zNlVq1/83LaVC6n145NO0qXmho55v9AX0U4gWuCLKHCTh2pZBoHKPylA/esdGdsD3qTMBbVeacOqeOvwjbgOsn03gU/cSDLPZAKiURZFZYzhAVeuA5TgQCGjJ1a3Trusxx8k6lm7QCrgwm6gCswslorV0xFkw+s2gJ296pjzeCvzC98754mhR+ubI5beV9+5dU9qSRMkOQiJS4FiFCQ5hu4uQKFAPfAMmBpy0Ak4meqJ5m1YP497Od4tDdwy4Oq02/qLDSWQA513nyPJUjexpZDg1Hxta6ljzK7+ydTOsfQvnNEBJnnegEkhGbYKUtgAdhuGayhMqvegYi+egIHsswwMNuuQowmw11xkWR1EU+78huH4Qxw53u9yGETCQ/XTzqM8IhJreDdgS9KHe+UI84jHEe4cZoD72SqoQ1G1dt/J+cPjGZTDcJRnd9YRd/W6nU8iAVWAACfadUGbpmzoK9t53vHBt2XcGt8iJf8zQ3UiQse3WnHfx4mmynhM4YD30FkwFH/YzmT7q0VlbqJG6lpwCtXrSr9xFQYGec0r9wFogYmOKOhw3BGI6Tz7wi6V8Ix6E/4CCp1FL5NoatIpzu/OKTZogAAKRVwFFlFf2X3bzHtf074Gn86Fc4DB38a/dPJG5D9cf1X7u8jgotvvMsYoYei7Ib5XwPO4HbeVPEEl2nHPfHslGGD9sggNBSfuiXVtlbIRurHHgrxrH+BQCLuC1mREZEzc/h7xrL48gXQTNE8R1qQAAAKejeMPheGHUU4Mw1ra/g5PUQXrwhYskh7UHn4vDSKbe7kIilSHeqfyoS0cxI3a+9rSRs0QAqS25dAmTyEipIzLPSLgH11MkmuyhJ7l1VIPG4dJVDncJJMV2MtkLd1ZK3JLzvZWPyqJcOirxwmKkX3QWtVDj0lYVAPnqTwE0JYlBo4n/At/khAwX25nJyhTc8+E9xqWfpFgAANf7aM+t3rxuZJk8YHwbcs7sLOsqc77w/IvDSCpNHjUhIhNkQ55AiZo5UT2+iCFYFPXRy/AOVHGgxDPYkMCOE4Dov1ynvp8e4c/7QnJ2Ptckni2JY7lSw7izQQqd/zM7SsyP3sf97R51op7wFEnJgcH8/UMO+MkAHazWQrBgSfPWcTz5r9HcLvx/533fcQTS4oauAq3wP8RAoNlhPzuA8vxBprjOwM5mYtCfMw2x1PjzuMjg5XOMzgKRGYV02qAAGTyAKTyGav2vbZeSXQlKf8pCSxFkxyED9FFQOczl5ox8p6e/RyXzyc907cVZ/LprwDHLd0bhq5KHb79OMbyYBssaXX9M7m3y9TECfsqup/ZUiFW+4UQ95QVDTCcyFVjC74WDiVK8XtNh2i+B77eEcI1OchGqvQseAVjIRCGmvMLZan1vuWeGZ1BH3+AA55j4HPkFTIPT9wdfBW4Lz43pKKb0PWlsNXEwgXXdHanj630Tjf5p8GfbzLVThWxx+Vn+Pg20QaSHDcmIyDfDy9JFQ3KDOc6dGiwCbD5/O/LL94EN2DBtMA9dECkjkQOYmExwueNcGmADNpm+Lk2PG3qniqZPJZWqx4v7ctisJWm1rpFDs19HdWv2wQocXxTBFGCQuP2xfpVSAJBduQKEk2hSZWy+gJSgvpsVHHVjNq6dKgCl3KBweK8COf8pzjonMyxumVLmhVFMArmJqBuAZeFRjjXnzFIpXbxmp6rA/TCifUsODRkAACdzSFLolcxjeyfDuXn88NTi4xOh/mxsCqMmFVQjWh9je40wKHEeHwNhmDtzVsMmUqmEur+DXf5tg27RmKJv8gUrFKiVx3gn3/cz5Yb/biw4czLYbp6Bkpk9j1fu2msRDGcWXxN8mu5DSU8APRFYlRqSLCnueUnbdICAvvTMq2V7bae4sDn9T0heDi1DyMZrLPnVEMB1/YDOUvwZJsIGuaNn3NsvwNuzC7EP1DYNLFAAAWnEkRwOTJ29H6PC93sWIA1JmrYrn0P6j2YDHHkuBJngB+jHIMY8aB3P+ZZEPMqG92bP015zdptHrdHbLM41idFgURYW7qU+khJ4UUjMTr9lcbumQKZNry2PDERwsxm5MThsWTG8xTBaaVDRdrZGiGnjNoA6aJRfVlZIIbH9iDU2NothFMTZuPKd5fCCAAo+imzo+biztL3HdLF2FL2j2dUDRAfSQ95aq8TMHdgnFhM6RbBe1ZvALPe8Cj/GUcadh1epV1F51QXBg4+KplSqWMoMQtnEY3pLvC9fmpb6mqXz0ytOmzy21LrytZV+3Y86GPf1CdBRLFESufFgAC/p+YzWoi80j2VBHgSIX9vbb0U7VtCAQn3Nxfnt7nUZLWWycVaror8FOkWchyosvw8wNNATlnSLSms9Qhw+vSnxKD0/H4T2jIwsWF812Aebyws2JNEvC2Pkf5+sDZDBeRHG9IfIk1+bd10d+fp53AUAA5a5Vo1t/j/M/iMWfPI+9OgIs3hybWU+UMZT5UtDOVyXham8ZMX8XrfMgX7skpNUIB15fK8jeOCn67ZSc6z69P128T6219eJ29+okGMfuADt4ygPfAe00xBZ1K4DeyUJYxHy4cDiSqmlbbM44bdJ1f1Mfxb8OIJb/xVxGN/Xrz0C+fJV49muNLeTw4V86yYTZ0ko/kekqkUr5vCkCC8f6Ix+wWLiQzvxeS1WhGqXZ7K8+AFkg2KpwGzJSGCGAxmu/QGDTOkRTGfnMQkcFb3pNgiPn6al3wu11pZJMSfX3L0fWMQ1iHObfXhnmpwMLseoN511/YpdnvsbUtJwx5w+IBLy20iRQlIwGblyow60dsSQGGnjqvLmoyaUyyRvCdlmEvhlkz5q+ZsXoMGviNyiLC78K1FEeJzGgG4EB9xLH6VVTrv580K+RrP2jcjQijXWui70/MYhWAwRbps1f6u28M9EoD2vFmKJGLf+jlRno2hqxB5bObHgo0YWujywLSJL+z3f+n/8wSuuFramFrizM2PB9u2LKMvebDEIbJowioI1fqQ/fXmo7By+e1rN6rXlchQVwAs6xO/iZLH9drWx8w/RstG2DmmaTOVroth4CXjVQeHhdvKiOWAtR9aM/q3+4foDojcYe+hQGJ8HxJn93sDWxt3FIyc2bN3ed/G89tsXmUnYgU8eXqo8hEeT223HMrOUvKeckA8yjlZ2z7yOhxkRn6iBeTASkR9SDnetpGMmRsl7I2IIdrTkWWy1SAcEQMaTVuNFPcktqmbHFmw7aUACOnm/Sv+1jOXdZ0pr8DkfjLLzYzY1Sqt2LukCj1tslzznRWxPnUwMXD6zHNp+4qm/2TWKFVuNa7e0KOpySH28XzkO6TS77MoXyNdjAs7Ve0rwyx5e3VZ14Esj6Tk5vIOVfi2xKPUSxeKNHgsYUUJ2hhHEnHjiyku9P1vHvhPkYDOIRJnfTmMjCr4AkVyHWmg1D3rX8FRrg+vc3oYcXLflh4rIzXwoce4jGgea/CQJ+GObjam7aMglqBNPaYTZreLQHi0v9iFCnN3c19W0BaiuY1x/6jriPrikU8o8EiZqJdrAvR7ldFZ0lPIECXZdLy+lZM29nVLi8ldo3VNp4rmkuzXedgDzUTYsNZ7wITQzDw74ixwGp3psVVgfoiGAx0FlYSS+PGwKT1eSA0Bfxx5v3YUmWytxQDE04xEAgL3YYDzn4f0yi/dWP5309QiA4gema9vMB74vX1W8UQpFO2fg8G0aNDbtphaXE3dQb/1McVXESsX+IMDkIIpN329pf5ugaECUHmCrnp93/QU6QQS0wzcVouzA0A7dE4L06yrDJ3LYqpwRc/4AAq21MJUl1l/RVTHdMFiXffQJG3TFgAz+ib9vkuOxwv9vH/MhqIJ7OftYH8o7aGw74jYND07W6Kzhl5tMqATPLjgfOI4Ad3rFOJQz7vPaFR4kDZPr5cPtkNZLbagt5DvdFYcvC++OuYNCSW3iRw4rpxu8Ydxk+gMJ3UmbKKUY2KbLNaNv/0m9KhsHsLkjH1CK4P1ykamEDUQJVJNnEWYYCadayiE6HCc0yikhOt0ibQmtTPDVIQTFGUNn/hz54W5Klihb1GOgYJ6z6PqlZJXHIbyo0p32P0tpwy9hz9/xv9d5eTaKeavI8WtnvMRmCol5kZ+arf0gNHBDRnOSVz9H+MzkEAyrkDjDJeEK0moEYprCOnxCBBZP1PadJ060oxI8VgdwAzkXoh+AP7XK5KPcSKHqqvBAFVqv+X/YpLy9jTHucgAJOBeCAz9W4p5i+4xW+UWpetvI+a8ix6fcZQGmndARm1/7PVD6a7n8/jyGgRley+I4U4pA3C5zYO4KIoMIzZXzVeND1m4FVWc7EuNMiGMw2MHQSngm8OU0++lRWIJln9wWu06OsK3doNk+3Pn/lpRfENkaYbcF8g8SclY9FiNc8v//Uts+qKbWpyWVmUXc3PwAAAU8xF5MH57xiJdocH2w5ley+GxwcLtUU+0vZIEJD+NZZ1CWuZG/6me0rg2GAglBHHAQGDCzVDr9QPZ7kNbhbrTyhTwbKLHweniLcqOs3xgrkkbTbTZoDeD9MyrfnaRgq232pVaGWabhAAAQ8WGDGotJnKd0NH9dM3b2FE9OTvH9XCi1fMRf/kwr4CONZksAIcKwdr/sbmX8T4M6ygfIay8FhkznbZ9dQbXnI8784N70I9tTut1ZJlnd0lnLbKIDqgY/2CL8d/HV2NBp3QCibJK3Cz2PxVFGLhf8V0AFLgAAeBdL1f6Q162YiUz9nvtsmxnXK82ftZXCfu2vc1vUTI7DGn3lmrJJaIoJwI9C8G8gykYgYv/rE2TNdAPMpKVcGB1HrS4kZ8R92nB++QZh4hHCiXtoC8vpinUTcwONisPAqxoYoeIuOYg9P7/cVP7k0GJB2lCgNrgK5Fz+GmR+YBR1JS/fPVfTgBzmxMrlDkSZwAAARGzE3rogvMpESujL7DYM2Emq8z5yS4yZB3RWP/F7aZshV/oO0eLIvP/gPKve5mIKgHh5wp8erpbUTZSzRNM8R3190KvC88zQY0mNaU6fpFyptzB6a4RT3fj08ywiyYcru1rFwS+mG0B/xVRV2G10XwmaUuZh/WpfmiGpqL9JwD8FXugIqBzyw4bULTt4SaQfzsSarnEDtofRORy/iQ00T2gAAAAcWrWYuV0/fbCexxVFblG8q8z6V0oGsLRnj8SpmCn5NYT0FcQbXhwOkEgD2r7YWKfOR3IFAgZPT0qBqRy22sLAFez2bebqySJo3Iv8qW/eB1DFYRPNQiOEKLEKkIiZnXi6Va6ik6DvQwxcw0TUU8b1ru5iX43/1NN/KB6/4DN7dDqFTvRHBusHs5tvcvonAEmybA22DyBjaxkifkemsXgPuHKiPHTf1bHy4aMRgWe4/Sa3yharMp5+p9cQyeVipF4QDlLQbDJmCHWElgAAAAAAAAAAAAAAAAAAAAAAAAAAAAAAAAAAA;" vertex="1" parent="1">
          <mxGeometry x="240" y="33.76" width="83.23" height="62.47" as="geometry" />
        </mxCell>
        <mxCell id="WbC4r-EGkHE_0QC-VvXs-4" value="Tailwind" style="text;html=1;align=center;verticalAlign=middle;whiteSpace=wrap;rounded=0;" vertex="1" parent="1">
          <mxGeometry x="252" y="100" width="60" height="30" as="geometry" />
        </mxCell>
        <mxCell id="WbC4r-EGkHE_0QC-VvXs-6" value="Web App" style="text;html=1;align=center;verticalAlign=middle;whiteSpace=wrap;rounded=0;" vertex="1" parent="1">
          <mxGeometry x="130" y="40" width="60" height="30" as="geometry" />
        </mxCell>
        <mxCell id="WbC4r-EGkHE_0QC-VvXs-7" value="" style="rounded=0;whiteSpace=wrap;html=1;fontFamily=Times New Roman;fontSize=18;fontStyle=1;shadow=0;fillColor=#0050ef;glass=0;sketch=1;curveFitting=1;jiggle=2;strokeColor=#001DBC;fontColor=#ffffff;" vertex="1" parent="1">
          <mxGeometry x="340" y="200" width="280" height="530" as="geometry" />
        </mxCell>
        <mxCell id="WbC4r-EGkHE_0QC-VvXs-8" value="ID Verification" style="text;html=1;align=center;verticalAlign=middle;whiteSpace=wrap;rounded=0;fontFamily=Times New Roman;fontSize=18;fontStyle=1;shadow=0;fillColor=#0050ef;glass=0;sketch=1;curveFitting=1;jiggle=2;strokeColor=#001DBC;fontColor=#ffffff;" vertex="1" parent="1">
          <mxGeometry x="393.2" y="206.04999999999998" width="110" height="39.3" as="geometry" />
        </mxCell>
        <mxCell id="WbC4r-EGkHE_0QC-VvXs-10" value="" style="rounded=0;whiteSpace=wrap;html=1;fontFamily=Times New Roman;fontSize=18;fontStyle=1;shadow=0;fillColor=#0050ef;glass=0;sketch=1;curveFitting=1;jiggle=2;strokeColor=#001DBC;fontColor=#ffffff;" vertex="1" parent="1">
          <mxGeometry x="20" y="200" width="280" height="530" as="geometry" />
        </mxCell>
        <mxCell id="WbC4r-EGkHE_0QC-VvXs-11" value="Authentication" style="text;html=1;align=center;verticalAlign=middle;whiteSpace=wrap;rounded=0;fontFamily=Times New Roman;fontSize=18;fontStyle=1;shadow=0;fillColor=#0050ef;glass=0;sketch=1;curveFitting=1;jiggle=2;strokeColor=#001DBC;fontColor=#ffffff;" vertex="1" parent="1">
          <mxGeometry x="70" y="210.7" width="120" height="30" as="geometry" />
        </mxCell>
        <mxCell id="WbC4r-EGkHE_0QC-VvXs-13" value="" style="rounded=0;whiteSpace=wrap;html=1;fontFamily=Times New Roman;fontSize=18;fontStyle=1;shadow=0;fillColor=#0050ef;glass=0;sketch=1;curveFitting=1;jiggle=2;strokeColor=#001DBC;fontColor=#ffffff;" vertex="1" parent="1">
          <mxGeometry x="980" y="200" width="280" height="530" as="geometry" />
        </mxCell>
        <mxCell id="WbC4r-EGkHE_0QC-VvXs-14" value="Voting System" style="text;html=1;align=center;verticalAlign=middle;whiteSpace=wrap;rounded=0;fontFamily=Times New Roman;fontSize=18;fontStyle=1;shadow=0;fillColor=#0050ef;glass=0;sketch=1;curveFitting=1;jiggle=2;strokeColor=#001DBC;fontColor=#ffffff;" vertex="1" parent="1">
          <mxGeometry x="1033.2" y="206.04999999999998" width="110" height="39.3" as="geometry" />
        </mxCell>
        <mxCell id="WbC4r-EGkHE_0QC-VvXs-16" value="" style="rounded=0;whiteSpace=wrap;html=1;fontFamily=Times New Roman;fontSize=18;fontStyle=1;shadow=0;fillColor=#0050ef;glass=0;sketch=1;curveFitting=1;jiggle=2;strokeColor=#001DBC;fontColor=#ffffff;" vertex="1" parent="1">
          <mxGeometry x="660" y="200" width="280" height="530" as="geometry" />
        </mxCell>
        <mxCell id="WbC4r-EGkHE_0QC-VvXs-17" value="Facial Recognition" style="text;html=1;align=center;verticalAlign=middle;whiteSpace=wrap;rounded=0;fontFamily=Times New Roman;fontSize=18;fontStyle=1;shadow=0;fillColor=#0050ef;glass=0;sketch=1;curveFitting=1;jiggle=2;strokeColor=#001DBC;fontColor=#ffffff;" vertex="1" parent="1">
          <mxGeometry x="713.2" y="206.04999999999998" width="110" height="39.3" as="geometry" />
        </mxCell>
        <mxCell id="WbC4r-EGkHE_0QC-VvXs-19" value="" style="points=[];aspect=fixed;html=1;align=center;shadow=0;dashed=0;fillColor=#FF6A00;strokeColor=none;shape=mxgraph.alibaba_cloud.cas_ssl_central_authentication_service;" vertex="1" parent="1">
          <mxGeometry x="20" y="200" width="44.24" height="50" as="geometry" />
        </mxCell>
        <mxCell id="WbC4r-EGkHE_0QC-VvXs-20" value="" style="sketch=0;pointerEvents=1;shadow=0;dashed=0;html=1;strokeColor=none;fillColor=light-dark(#505050, #ff6a00);labelPosition=center;verticalLabelPosition=bottom;verticalAlign=top;outlineConnect=0;align=center;shape=mxgraph.office.services.verification_service;" vertex="1" parent="1">
          <mxGeometry x="340" y="200" width="50" height="50" as="geometry" />
        </mxCell>
        <mxCell id="WbC4r-EGkHE_0QC-VvXs-21" value="" style="points=[];aspect=fixed;html=1;align=center;shadow=0;dashed=0;fillColor=#FF6A00;strokeColor=none;shape=mxgraph.alibaba_cloud.face_recognition;" vertex="1" parent="1">
          <mxGeometry x="660" y="200" width="47.400000000000006" height="46.800000000000004" as="geometry" />
        </mxCell>
        <mxCell id="WbC4r-EGkHE_0QC-VvXs-23" value="" style="shape=image;verticalLabelPosition=bottom;verticalAlign=top;imageAspect=0;aspect=fixed;image=data:image/jpeg,/9j/4AAQSkZJRgABAQACWAJYAAD/2wBDAAgGBgcGBQgHBwcJCQgKDBQNDAsLDBkSEw8UHRofHh0aHBwgJC4nICIsIxwcKDcpLDAxNDQ0Hyc5PTgyPC4zNDL/2wBDAQkJCQwLDBgNDRgyIRwhMjIyMjIyMjIyMjIyMjIyMjIyMjIyMjIyMjIyMjIyMjIyMjIyMjIyMjIyMjIyMjIyMjL/wAARCAPUA9QDASIAAhEBAxEB/8QAHAABAAMBAAMBAAAAAAAAAAAAAAYHCAEDBAUC/8QAUxABAAECAgQICQcLAwMDAwQDAAECAwQFBhEXUQcSMUFWk5TSITdUVWFxgZHRFRhSdKGysxMUFiIyQlNicpKxgqLBCCMkM3PCJUNEJzXh8DSjw//EABYBAQEBAAAAAAAAAAAAAAAAAAABAv/EABYRAQEBAAAAAAAAAAAAAAAAAAARAf/aAAwDAQACEQMRAD8Av8AAAAAAAAAAAAAAAAAAAAAAAAAAAAAAAAAAAAAAAAAAAAAAAAAAAAAAAAAAAAAAAAAAAAAAAAAAAAAAAAAAAAAAAAAAAAAAAAAAAAAAAAAAAAAAAAAAAAAAAAAAAAAAAAAAAAAAAAAAAAAAAAAAAAAAAAAAAAAAAAAAAAAAAAAAAAAAAAAAAAAAAAAAAAAAAAAAAAAAAAAAAAAAAAAAAAAAAAAAAAAAAAAAAAAAAAAAAAAAAAAAAAAAAAAAAAAAAAAAAAAAAAAAAAAAAAAAAAAAAAAAAAAAAAAAAAAAAAAAAAAAAAAAAAAAAAAAAAAAAAAAAAAAAAAAAAAAAAAAAAAAAAAAAAAAAAAAAAAAAAAAAAAAAAAAAAAAAAAAAAAAAAAAAAAAAAAAAAAAAAAAAAAAAAAAAAAAAAAAAAAAAAAAAAAAAAAAAAAAAAAAAAAAAAAAAAAAAAAAAAAAAAAAAAAAAAAAAAAAAAAAAAAAAAAAAAAAAAAAAAAAAAAAAAAAAAAAAAAAAAAAAAAAAAAAAAAAAAAAAAAAAAAAAAAAAAAAAAAAAAAAAAAAAAAAAAAAAAAAAAAAAAAAAAAAAAAAAAAAAAAAAAAAAAAAAAAAAAAAAAAAAAAAAAAAAAAAAAAAAAAAAAAAAAAAAAAAAAAAAAAAAAAAAAAAAAAAAAAAAAAAAAAAAAAAAAAAAAAAAAAAAAAAAAAAAAAAAAAAAAAAAAAAAAAAAAAAAAAAAAAAAAAAAAAAAAAAAAAAAAAAAAAAAAAAAAAAAAAAAAAAAAAAAAAAAAAAAAAAAAAAAAAAAAAAelmub4DJMvvY/MsVbw2GsxrruVz4I18nrn0PPh8TZxVi3fsXaLtq5TFVFdE64qieSYnngHmAAAAAAAAAAAAAAAAAAAAAAAAAAAAAAAAAAAAAAAAAAAAAAAAAAAAAAAAAAAAAAAAAAAAAAAAAAAAAAAAAAAAAAAAAAAAAAAAAAAAAAAAAAAAAAAAAAAAAAAAfPzjOMDkWWYjMMwxFNjDWaeNVXV9kRHPM80c7ucZxgciyvEZhmGJosYexTxq66vsiI55nmjnZf0808x2muacerjWMtszP5thdfJ/NVvqn7OSPSDTzT3Haa5px6uNZy6zM/m2F18n81W+ufs5I59f2ODThLu6KX6MszSuq5ktyrwTy1YWqf3o30749sc+uuAVtjDYm1isPRfs3aLtq5TFVFdE66aqZ5JieeHmZo4NOEq7opfpyzM66rmS3KvBPLVhap/epjnp3x7Y9OkcNibWKw9F+zdouWrlMVUV0TrpqpnkmJ54EeYAAAAAAAAAAAAAAAAAAAAAAAAAAAAAAAAAAAAAAAAAAAAAAAAAAAAAAAAAAAAAAAAAAAAAAAAAAAAAAAAAAAAAAAAAAAAAAAAAAAAAAAAAAAAAAAAAAAB6GcZxgciyvEZhmGIosYexTxq66vsiI55nmjnM4zjA5FleIzHMMRRYw1inXXXV9kRHPM80c7L+nmnmO01zTjVcaxltmf/Gwuvk/nq31T9nJHpBp5p5jtNc041XGs5bZmfzbC6+T+erfVP2ckemIANAACx+DThLvaKX6cszOuq5ktyrwTy1YaZ/epjnp3x7Y9NcANsYbE2sVYov2btFy1cpiuiuirXTVTPJMTzw8zNHBrwlXdFb9OWZpXVcyW5V4J5asLVP71Mc9O+PbHp0jhsTaxVii/Zu0XLVymK6K6KtdNVM8kxPPAy8wAAAAAAAAAAAAAAAAAAAAAAAAAAAAAAAAAAAAAAAAAAAAAAAAAAAAAAAAAAAAAAAAAAAAAAAAAAAAAAAAAAAAAAAAAAAAAAAAAAAAAAAAAAAAAAAD0M4zjA5Fld/McwxFFjDWKddddX2REc8zzRzmcZxgciyu/mOYYiixhrEa666v8RHPM80c7L+nmnmO01zSaq4qsZdZq/8AGwuvk/nq31T9nJHpBp7p5jtNc0mqrjWMtsz/AONhdfJ/PVvqn7OSPTEAGgAAAAABY3BpwlXdFb9OWZnXVcyW5V4J5Zwsz+9THPTvj2x6a5AbYw2JtYqxRfs3aLlq5TFdFdE64qpnkmJ54eZmfg04Sruit+nLMzrquZLcq8E8s4Wqf3qd9O+PbHPr0lhsTaxVii/Zu0XLVymK6K6KtdNVM8kxPPAy8wAAAAAAAAAAAAAAAAAAAAAAAAAAAAAAAAAAAAAAAAAAAAAAAAAAAAAAAAAAAAAAAAAAAAAAAAAAAAAAAAAAAAAAAAAAAAAAAAAAAAAAAAAAAD0M4zjA5Fld/McwxFFjDWI1111f4iOeZ5o5zOM3wORZXfzHMMRRYw1mNdddX+IjnmeaOdl/TzTvHaaZpNVUVWMus1T+bYbXyfz1b6p+zkj0g0808x2muaTVVFVjLrNX/jYbXyfz1b6p+zkj0xABoAAAAAAAAAAWPwa8Jd3RW/TlmZ1VXMluVeCeWcLM/vU76d9Ptj01wA2xhsTaxVii/ZuUXLVymK6K6KtdNVM8kxPPDzMz8GvCVd0Vv05ZmdVVzJblXgnlnC1T+9Tvp3x7Y59eksNibWKsW79i5Rcs3KYroroq101RPJMTzwMvMAAAAAAAAAAAAAAAAAAAAAAAAAAAAAAAAAAAAAAAAAAAAAAAAAAAAAAAAAAAAAAAAAAAAAAAAAAAAAAAAAAAAAAAAAAAAAAAAAAAAAAAA9DOM4wWRZXfzHML9FjDWY1111T9kRzzPJEc5nGcYLIsrvZjmF+ixhrMa666p+yI55nkiOdl7TzTvG6aZpNVUVWMus1T+bYXXyfzVb6p+zkj0h3TzTvHaaZpNVUVWMus1T+bYbXyfzVb6p+zkj0xABoAAAAAAAAAAAAAAWPwacJV3RXEU5ZmdddzJblXgnlnCzP71O+nfHtjdNcAjbGGxNrFYe3esXKLlq5TFdFdFWumqmeSYnnh5mZ+DThKu6K4inLMzqru5Lcq8E8tWFqn96n+XfHtj06Sw2JtYqxbvWLlFyzcpiui5RVrpqieSYnngR5gAAAAAAAAAAAAAAAAAAAAAAAAAAAAAAAAAAAAAAAAAAAAAAAAAAAAAAAAAAAAAAAAAAAAAAAAAAAAAAAAAAAAAAAAAAAAAAAAAAAHo5xm+CyLK72Y5jfps4azGuuur7IiOeZ5IjnM4zfA5Fll7Mcxv02cLZjXXXVPuiI55nkiOdl3TzTvG6aZpNVUV2Mus1T+bYXXyfzVb6p+zkj0g0807xummZzVVFVjLrNU/m2G18n81W+qfs5I9MRAaAAAAAAAAAAAAAAAAAAFjcGnCTd0VxFOWZnXXdyW5V4J5asLM/vU/wAu+PbHPrrkEbYw2JtYqxbvWLlFy1cpiui5RVrpqieSYnnh5mZ+DXhKu6K36cszOqu7ktyrwTy1YWZ/ep/l3x7Y9OksNiLWKw9u9YuUXLVyiK6LlFWumqJ5JieeBHmAAAAAAAAAAAAAAAAAAAAAAAAAAAAAAAAAAAAAAAAAAAAAAAAAAAAAAAAAAAAAAAAAAAAAAAAAAAAAAAAAAAAAAAAAAAAAAAAehnGb4LIssvZjmN+mxhrMa666vsiI55nkiI5Xc3zjA5Fll7Mcxv02cNZjXXXV9kRHPM8kQy7p5p3jdNMz41XHsZdZqn82wuvk/mq31T9nJHpBp5p3jdNMz11RXYy6zVP5thdfJ/NVvqn7OSPTEQGgAAAAAAAAAAAAAAAAAAAAABY3BpwlXdFb9OV5nXXdyW5V4J5asLM8tVO+nfHtjdNcgjbGFxNrFYe3esXKLlq5TFVFyirjU1RPJMTzw8zM/BpwlXdFcRRleZ113cluVeCeWrCzP71Mc9O+n2x6dJYbEWsVh7d6xcpuWrlMVUXKKtdNUTyTE88CPMAAAAAAAAAAAAAAAAAAAAAAAAAAAAAAAAAAAAAAAAAAAAAAAAAAAAAAAAAAAAAAAAAAAAAAAAAAAAAAAAAAAAAAAAAAAA9HN84wORZZezHMb9NnC2adddc/ZERzzPJEQZvnGByLLL2Y5jfpsYWzTrrrq+yIjnmeSIjlZd0708x2mmZ8arj2MusVT+bYbXyfz1b6p+zkj0g0707xummZ8arj2Mus1T+bYXXyfzVb6p+zkj0xEBoAAAAAAAAAAAAAAAAAAAAAAAAAAWPwacJV3RXEUZZmddd3JblXgnlqwtU/vU76d8e2OfXXAI2vhcTZxWHt3rFym5auUxVRXRVrpqieSYnnh52aODThKu6K4ijLMzrru5Lcq8E8tWFmeWqnfTvj2xz69I4bE2sVh7d6xcpu2rlMV0XKKtdNVM8kxPPAjzAAAAAAAAAAAAAAAAAAAAAAAAAAAAAAAAAAAAAAAAAAAAAAAAAAAAAAAAAAAAAAAAAAAAAAAAAAAAAAAAAAAAAAAAPRzfOMDkWWXswzG/TZw1mnjVVz9kRHPM8kRHK5nGcYHIssvZhmN+mxhrNPGrrq+yIjnmeaOdl7TvTzHaaZlFVU12MusVT+bYbXyfz1b6p+zkj0g0708x2mmZRVVNdjLrFU/m2G18n89W+qfs5I9MRAaAAAAAAAAAAAAAAAAAAAAAAAAAAAAAdooquV00UUzVXVMRTTTGuZmeSIjnkHaKa666aLdNVVdUxFNNMa5mZ5IiOeWneCnRvOdG9GIs5viq9d2r8pbwc+GMLE8sa988sxyR73xeC/gvpyKm1nWd2aas1qjXZsVeGMLG+d9fp/d5OXXK2KaYpiIiIE10AQAAAAAAAAAAAAAAAAAAAAAAAAAAAAAAAAAAAAAAAAAAAAAAAAAAAAAAAAAAAAAAAAAAAAAAAAAAAAAAAAAAAAehm+cYHIssv5hmN+mxhrNPGqrq+yIjnmeaOczfOMDkWWX8wzHEU2MNZp41VdX2REc8zzRzsvad6eY7TTM4qqmuxl1iqfzbDa+T+erfVP2ckekGnenmO00zOKqprsZdYqn82w2vk/nq31T9nJHPriIDQAAAAAAAAAAAAAAAAAAAAAAAAAAAADtFFVyumiimaqqpiKaaY1zMzyREc8g7RRVcrpoopmquqYimmmNczM8kRHPLQfBfwYRkVNvOs7s01ZrVGuzYq8MYWN876/u8nL4Tgv4L6ciptZ3ndmmrNao12bNXhjCxvnfX93k5VsU0xER4NQhTTFMR4Ih0BAAAAAAAAAAAAAAAAAAAAAAAAAAAAAAAAAAAAAAAAAAAAAAAAAAAAAAAAAAAAAAAAAAAAAAAAAAAAAAAAAAAAAAEA4UdCcXpfk9mrA4munGYPjV2sPVXqtXtfLExzVbp9OrnZkv2LuGv3LF+3XavW6port1xqqpqjliY5pbZmInlhWnCXwZ2tKLFWZ5ZbotZzbp8MclOJpj92rdVuq9k+gYzaPJfsXcNfuWL9uu1et1TRXbrjVVTVHLExzS8Y0AAAAAAAAAAAAAAAAAAAAAAAAAAA/VFFVyuKKKZqqqmIimmNczM8kRHPIOUU1XK4oopmquqYimmmNczM+CIiOeWhOC/gvjIqbed53ZpqzWqONZsT4Ywsb5/n/AMcnKcF/BfTkNNvO87s01ZrVGuzYnwxhYnnnfX/jkjwrYppiI5BCmmKYiIjU6AgAAAAAAAAAAAAAAAAAAAAAAAAAAAAAAAAAAAAAAAAAAAAAAAAAAAAAAAAAAAAAAAADkzEcoOjw3cXh8PRx7163ao+lcqimPteD5XyzzhhOvp+IPdHpfK+W+cMJ19PxPlfLfOGE6+n4g90el8r5b5wwnX0/E+V8t84YTr6fiD3R6XyvlvnDCdfT8T5Xy3zhhOvp+IPdHpfK+W+cMJ19PxPlfLfOGE6+n4g90el8r5b5wwnX0/E+V8t84YTr6fiD3R6XyvlvnDCdfT8T5Xy3zhhOvp+IPdHpfK+W+cMJ19PxPlfLfOGE6+n4g90el8r5b5wwnX0/E+V8t84YTr6fiD3R6XyvlvnDCdfT8T5Xy3zhhOvp+IPdHpfK+W+cMJ19PxPlfLfOGE6+n4g91yYieWHp/K+W+cMJ19PxPlfLfOGE6+n4ggHCXwZ2tKLFWZ5ZRRazm3TyclOJpj92rdVuq9k+jOF+zdwt+5YxFuu1et1TRXbrjVVTVHLExzS2bObZZPLmGE6+n4q04StCMo0psVZnlmMwVvObVPhj8vRFOJpj92rw/tbqvZPoGM9D9XLddm7XauUzRXRVNNVM8sTHLD8jQAAAAAAAAAAAAAAAAAAAAAADsRNUxERMzM6oiOcCiiq5XTRRTVVVVMRTTTGuZmeSIjnloTgw4L6ciptZ3ndmKs1qjjWbFXhjCxPP/X/jkjw+F6fBhoLlmQ0286zvFYOrNao12bFV+iYwsenw/t+nm5vCtenNcspjwZhhOvp+Ij3aaYpjwQ69L5Xy3zhhOvp+J8r5b5wwnX0/ER7o9L5Xy3zhhOvp+J8r5b5wwnX0/EHuj0vlfLfOGE6+n4nyvlvnDCdfT8Qe6PS+V8t84YTr6fifK+W+cMJ19PxB7o9L5Xy3zhhOvp+J8r5b5wwnX0/EHuj0vlfLfOGE6+n4nyvlvnDCdfT8Qe6PS+V8t84YTr6fifK+W+cMJ19PxB7o9L5Xy3zhhOvp+J8r5b5wwnX0/EHuj0vlfLfOGE6+n4nyvlvnDCdfT8Qe6PS+V8t84YTr6fifK+W+cMJ19PxB7o8FnGYbEUzVYxFq7Ecs264q1e55omJ5JB0AAAAAAAAAAAAAAAAAAAAAAAAAAAAAAAAAAAAAAAAAAAAABWvCfwjVaJ4e1l+WzbrzbE0caKqo102KOTjTHPM80eiZlZMzER4Z1Mg6a5zOkGmWa5jFfGt136qLXot0/q0/ZGv2hj5eY5pj83xVWJzHF3sXeqnXNd6uap+3k9j0+LT9Cn+2HX6ooru3KbduiquurwU00xrmfVEcor8cWn6FP9sHFp+hT/bD7VvRDSa7RFdOj2a1UzyTGEr8P2O/obpT0czXslfwB8Ti0/Qp/tg4tP0Kf7Yfb/Q3Sro5mvZK/gfobpV0czXslfwB8Ti0/Qp/tg4tP0Kf7Yfb/Q3Sro5mvZK/gfobpV0czXslfwB8Ti0/Qp/tg4tP0Kf7Yfb/AEN0q6OZr2Sv4H6G6VdHM17JX8AfE4tP0Kf7YOLT9Cn+2H2/0N0q6OZr2Sv4H6G6VdHM17JX8AfE4tP0Kf7YOLT9Cn+2H2/0N0q6OZr2Sv4H6G6VdHM17JX8AfE4tP0Kf7YOLT9Cn+2H2/0N0q6OZr2Sv4H6G6VdHM17JX8AfE4tP0Kf7YOLT9Cn+2H2/wBDdKujma9kr+B+hulXRzNeyV/AHxOLT9Cn+2Di0/Qp/th9v9DdKujma9kr+B+hulXRzNeyV/AHxOLT9Cn+2Di0/Qp/th9v9DdKujma9kr+B+hulXRzNeyV/AHxOLT9Cn+2Di0/Qp/th9v9DdKujma9kr+B+hulXRzNeyV/AHxOLT9Cn+2Di0/Qo/th9v8AQ3Sro5mvZK/gfobpV0czXslfwB8Ufa/Q3Sro5mvZK/gfobpT0czXslfwFfFH7vWbuHvV2b9uu1dt1TTXRXTNNVMxyxMTyS/AAAAAAAAAAAAAAAAAAAAP1RRVcrpoopmqqqYppppjXMzPJEQD8j7X6HaU9HM17JX8D9DdKujma9kr+APicWn6FH9sHFp+hT/bD7f6G6VdHM17JX8D9DdKujma9kr+Aj4nFp+hT/bBxafoU/2w+3+hulXRzNeyV/A/Q3Sro5mvZK/gD4nFp+hT/bBxafoU/wBsPt/obpV0czXslfwP0N0q6OZr2Sv4A+JxafoU/wBsHFp+hT/bD7f6G6VdHM17JX8D9DdKujma9kr+APicWn6FP9sHFp+hT/bD7f6G6VdHM17JX8D9DdKujma9kr+APicWn6FP9sHFp+hT/bD7f6G6VdHM17JX8D9DdKujma9kr+APicWn6FP9sHFp+hT/AGw+3+hulXRzNeyV/A/Q3Sro5mvZK/gD4nFp+hT/AGwcWn6FP9sPt/obpV0czXslfwP0N0q6OZr2Sv4A+JxafoU/2wcWn6FP9sPt/obpV0czXslfwP0N0q6OZr2Sv4A+JxafoU/2wcWn6FP9sPt/obpV0czXslfwP0N0q6OZr2Sv4A+JxafoU/2wcWn6FP8AbD7VWiGk9umaq9Hs0ppjwzM4Sv4Pk3LVy1cqt3aKrdyn9qiumaZj1xPhgHlwWOxWW4inEYHEXcLepnXTcsVzRVHthf8AwV8Jd/SSqrJc5rpnM7dE12r8Rq/OKY5dcfTjl8HLHh5meH09Hc1ryPSPLszomYnDYii5Ornp16qo/tmQbL5h+bddNdEVUzE0zGuJjnh+hAAAAAAAAAAAAAAAAAAAAAAAAAAAAAAAAAAAAAAAAAAAAEb07zn5B0LzXHxVquUYeqi1/wC5V+rT9ssiRGqIjcvrh7zr8llWVZPbqjjYi7ViLkfy0Rqp/wB1X2KGFx7uT5Vi88zfC5XgaOPicTci3Rr5I3zPoiNcz6mptDtA8n0PwNNvCWIuYuaY/LY2umPylyefVP7tO6I+1U/ANk/5zn2ZZvco10YSxFi3P89c+H/bT9rQYa5FOrnn3mr0z73QRzV6Z95q9M+90BzV6Z95q9M+90BzV6Z95q9M+90BzV6Z95q9M+90BzV6Z95q9M+90BzV6Z95q9M+90BzV6Z95q9M+90BzV6Z95q9M+90BzV6Z95q9M+90BzV6Z95q9M+90BzV6Z95q9M+90BzV6Z95q9MugKz4S+DO1pRYqzPLKKbWc26fDzU4mmP3ap+luq9k+jON+xdw1+5Yv2q7V23VNFduuNVVNUcsTG9tmY1qz4S+DO1pRYqzPLKKbWc26fDzU4mmP3at1W6r2T6BjNw8l+xdw1+5Yv2q7V23VNFdFcaqqao5YmN7xjQAAAAAAAAAAAAAADtFFVyumiimqqqqYppppjXMzPJERvB2iiq5XTRRTVVVVMUxTTGuZmeSIhoPgv4MIyKi3nWd2YqzWqNdmxV4YwsTz+mv8AxyR4Tgw4L6ciot53nVqKs1qjXZsVeGMLE8876/8AHJHhWxFMU8ghq9Mmr0z73QRzV6Z95q9M+90BzV6Z95q9M+90BzV6Z95q9M+90BzV6Z95q9M+90BzV6Z95q9M+90BzV6Z95q9M+90BzV6Z95q9M+90BzV6Z95q9M+90BzV6Z95q9M+90BzV6Z95q9M+90Bzi+mfejOl2g+T6X4GqzjsPFOJimfyWMop/7tqeadfPH8s+CUnAYxzvJ8Xo/nOLyrHUxGIw1yaKpjkqjliqPRMap9r5+rXGqeSVu8PeU/m+d5VmtFGqMTYqsVzvqonXH2VfYqIXGtODrNZznQPKMXVVFVyMPFm5P89H6k/4+1KlO8AWbflsmzXKq6o42Hv036I/lrjVP20/auIQAAAAAAAAAAAAAAAAAAAAAAAAAAAAAAAAAAAAAAAAAAcnkl16Ob5jbyjKMZmF7V+Tw1iu9Vr3UxMgzPwt5v8r8IWNppr41rBU04SjVya6fDV/umfcg7yX8TdxmIu4m/Ou7drquVzPPVVMzP2y8mAwN3M8ywuAsxM3cTeos0at9U6v+RWleBvJoyrg/w12qnVdx9dWKq36p8FP+2mPesF62AwlvAYKzhLMarVi3TaojdTTGqP8AD2RAAAAAAAAAAAAAAAAAAAAAAAAAAByYiY8LoCs+EvgztaUWK8zyyim1nNuPDzU4mmOSmqeardV7J9Gcb9i7hr9yxftV2rtuqaK6K6dVVNUcsTHNLbMxrjUrThM4NLWlNmvM8soptZzbj1U4mmP3ap+luq9k+guM2jyX7F3DYi5Yv267V21VNFdFcaqqao5YmOaXjFAAAAAAAAAAAfqiiq5XTRRTVVVVMU000xrmZnkiI55AooquV00UU1VVVTFNNNMa5mZ5IiN7QfBhwX05FRbzvOrUVZrVGuzZnwxhYnnnfX/jkjwnBfwYU5FTbzvO7UVZrVGuzYmNcYWJ5531/wCOSPCtiIinkEIiKeR0BAAAAAAAAAAAAAAAAAAAAAAAAFc8NWVfKGgF3EU067mAvUYiJ/l18Wr7KtfsZnbOzrLqM2yXG5fciJpxNiuzOv8AmiY/yxnctV2bldq5Gq5bqmiqN0xOqftFxYHAxmvydwgWsPVVqox9ivDzr56v2qftpn3tNx4Yhi7KMxryjOMFmNv9rC36L0f6aomfs1tnWL1F+xRdt1RVRXTFVMxzxMa4EeQAAAAAAAAAAAAAAAAAAAAAAAAAAAAAAAAAAAAAAAAABWvDZnEZdoNOCoqiLuY3qbH+iP1q/wDER7VkzySzpw6Zx+eaW4TLKKtdvAYbXVHNFy5Ouf8AbFPvBVqwuBrJ/lPT61ia6ddrL7VWJnX9L9mj7apn2K9aD4B8m/NtGcdm1caq8biOJROr9y34PvTV7hVtgCAAAAAAAAAAAAAItpNwgaPaJ3YsZljP/JmmKow9miblzVvmI5I9cwCUisY4dNFNX/o5n2aO8bdNFP4OZ9mjvAs4Vjt00U/g5n2aO8bdNFP4OZ9mjvAs4Vjt00U/g5n2aO8bdNFP4OZ9mjvAs4Vjt00U/g5n2aO8bdNFP4OZ9mjvAs4Vjt00U/g5n2aO8bdNFP4OZ9mjvAs4Vjt00U/g5n2aO8bdNFP4OZ9mjvAs4Vjt00U/g5n2aO8bdNFP4OZ9mjvAs5yY1xqlWW3TRT+DmfZo7xt00U/g5n2aO8DvCZwaWtKLFeZ5ZTTazm3Hh5qcTTH7tU/S3VeyfRnK/Yu4bEXLF+1Xau26port106qqao5YmOaWjJ4ctE5jV+SzPs0d5XHCNpJoZpbT8oZdRj8NnFOqJqrw0RRiKd1eqrwTHNV7JFxWwAoAAAAAAAD9UUVXK6aKKaqqqpimmmmNczM8kRHPLQfBhwYU5FRbzvOrUVZrVGuzYnwxhYnnnfX/jkjwq54Os80Q0ZvfKmc0Y3E5pTP/Zpt4eKrdiPpRM1Rrqnfzc29aMcOWidMaotZn2aO8Is2mnix4HVY7dNFP4OZ9mjvG3TRT+DmfZo7wizhWO3TRT+DmfZo7xt00U/g5n2aO8CzhWO3TRT+DmfZo7xt00U/g5n2aO8CzhWO3TRT+DmfZo7xt00U/g5n2aO8CzhWO3TRT+DmfZo7xt00U/g5n2aO8CzhWO3TRT+DmfZo7xt00U/g5n2aO8CzhW+G4btEcRfptXK8dh6ZnV+UvYaeLHr4szP2LBweLw+PwlrFYW9bvWLtPHt3LdXGpqjfEg84AAAAAAAAAAAAADJ3CXlPyPwg5tZpp1W71385t/03I43+eM1iobh8yqbeOyfNqY8Fy3Xhbk6uemeNT9k1e4FNNXcGGa/K/B9lN6qvjXLNn82uTz8a3PF/xET7WUV68AGbcfB5xlFdXht3KMTbj0VRxavtpj3i6ukAQAAAAAAAAAAAAAAAAAAAAAAAAAAAAAAAAAAAAAAAB+LldNFuqquYimImZmeaOdjjSPNqs90kzHNKv/ysRXcp9FOvVTH9sQ01wm5xOSaBZrfoq4t67a/NrU8/GuTxfB6o1z7GUYiIjVHILhEVTOqmNdU+CI3zzNh6JZRGQ6K5blerVVh8PRTX6a5jXVP90yzJweZPGeaeZThKqeNaovfl7sav3Lf60++YiPa1rSGugCAAAAAAAAAAAAPHiK/yeHuVxTxuLTNXF36vDqYwzPH4jNc0xOYYuua8Ribk3blU75n/AI5PY2lVGumY16lAaccDeaUZxiMdo3boxWEv1Tc/NePFNy1MzrmI1+CqnXyeHXHIGKhEwjgt016P4nrLfeNlumvR/EdZb7wtQ8TDZbpr0fxHWW+8bLdNej+I6y33gqHiYbLdNej+I6y33jZbpr0fxHWW+8FQ8TDZbpr0fxHWW+8bLdNej+I6y33gqHiYbLdNej+I6y33jZbpr0fxHWW+8FQ8TDZbpr0fxHWW+8bLdNej+I6y33gqHiYbLdNej+I6y33jZbpr0fxHWW+8FQ8TDZbpr0fxHWW+8bLdNej+I6y33gqHiYbLdNej+I6y33jZbpr0fxHWW+8FQ8TDZbpr0fxHWW+8bLdNej+I6y33gqHiYbLdNej+I6y33jZbpr0fxHWW+8FQ8TDZbpr0fxHWW+8bLdNej+I6y33gqHiYbLdNej+I6y33jZbpr0fxHWW+8FQ8TDZbpr0fxHWW+8bLdNej+I6y33gqHiYbLdNej+I6y33jZbpr0fxHWW+8FQ8TDZbpr0fxHWW+8bLdNej+I6y33gqHiYbLdNej+I6y33jZbpr0fxHWW+8FQ8TDZbpr0fxHWW+8bLdNej+I6y33gqHiYbLdNej+I6y33jZbpr0fxHWW+8FQ8TDZbpr0fxHWW+8bLdNej+I6y33gqHiYbLdNej+I6y33jZbpr0fxHWW+8FQ9e/AFmWJvZfm2W3Jqqw+Grou2tfJRNfG40R65pifer3DcE+mmIvxbqyaqxE8ty9et00x65iZn7F98H+hdnQrIYwkXov4u9V+VxN6I1RVVq1REfyxHgj2yJUuAAAAAAAAAAAAAAQDhiyr5T4PMZcpp13cFXRiqfBzUzqq/21Sn71MywVvMcuxOCu/+niLVdqr1VRMf8gxZzp3wP5p8l8ImDt1VareOorwtXrmNdP8Aupj3oRiMPcwmLvYW9ExdsXKrVcTvpmYn/DyYDG3MtzHDY61Oq5hr1F6mfTTVE/8AAratP7Mep14MJibeMwtrEWZ12r1um5RO+JjXH+XnEAAAAAAAAAAAAAAAAAAAAAAAAAAAAAAAAAAAAAADmHJ/Zn1Ao/h+zmZqyfJaJ+li7sa/9NH/AMlJcyW8JecfLWn+aX6KuNZs1/m1rdxbf6v3uNPtRIXFz8AWTcfEZvnVdPgoppwlqZjnn9av7Ipj2r3Qrgryf5G4P8ut108W9iaZxV2PTc8Mf7eKmogAAAAAAAAAAAAAAAAAAAAAAAAAAAAAAAAAAAAAAAAAAAAAAAAAAAAAAAAAAAAAAAAAAAAAAAAAAADKvCrlXyVwiZnFNOq3iqqcXR/rjw/7oqQvVrXXw/ZT4cmzemn6eEuVf76f/kpQXGpuCfNflTg8yyZq41zC01YW566J1R/t4qcKO4AM2/WznKK6voYq3H+yr/4rxEAAAAAAAAAAAAAAAAAAAAAAAAAAAAAAAAAAAAAAHyNJs3pyLRvMszqnV+bYau5T6atX6se/U+uqnh2ziMHophcsoq1XMffjjRE//bt/rT/umkGeJqqrmaq5111TrqmeeZ5XvZHlded6QZfldHLi8RRan0RM/rT7I1vQWbwHZR+f6ZXsxrp128vsTVTM/wASv9WPs4wrRti1RYtU2rcRTRREU0xHNEeCHkAQAAAAAAAAAAAAAAAAAAAAAAAAAAAAAAAAAAAAAAAAAAAAAAAAAAAAAAAAAAAAAAAAAAAAAAAAAAABBuFrKflXg7zGKaeNdwvFxdH+idc/7ZqZanlltbGYa3jMJdw12Ndu9RVbrjfFUTE/5YwxuDuZdmOKwN2Ji5hrtdmqJ301TH/AuJdwUZp8lcIuWzVVqt4qasLX4fpx4P8AdFLVFP7MepifDYm5g8VZxVmZi7ZuU3aJjfTOuP8ADZ2W423mOXYbG2vDbxFqi7RPoqiJ/wCQ17YAgAAAAAAAAAAAAAAAAAAAAAAAAAAAAAAAAAAADk+CmZ9DNPDXm/yjp3ODoq12susU2Y/rq/Wq/wA0x7GkcViLeEwl7EXp1WrVuq5XO6mI1z/hjPNcxuZvm2MzK9M/lMVervTr/mmZiPdqgXHptHcB2TfmGhNePrp1XcwxFVyJ30U/qU/4qn2s4TE806misj4WdB8lyPA5baxWLijC2KLUasHX4eLGqZ9s65DVqiudtmhfleM7HcNtmhfleM7HcEWMK522aF+V4zsdw22aF+V4zsdwFjCudtmhfleM7HcNtmhfleM7HcBYwrnbZoX5XjOx3DbZoX5XjOx3AWMK522aF+V4zsdw22aF+V4zsdwFjCudtmhfleM7HcNtmhfleM7HcBYwrnbZoX5XjOx3DbZoX5XjOx3AWMK522aF+V4zsdw22aF+V4zsdwFjCudtmhfleM7HcNtmhfleM7HcBYwrnbZoX5XjOx3DbZoX5XjOx3AWMK522aF+V4zsdw22aF+V4zsdwFjCudtmhfleM7HcNtmhfleM7HcBYwrnbZoX5XjOx3DbZoX5XjOx3AWMK522aF+V4zsdw22aF+V4zsdwFjCudtmhfleM7HcNtmhfleM7HcBYwrnbZoX5XjOx3DbZoX5XjOx3AWMK522aF+V4zsdw22aF+V4zsdwFjCudtmhfleM7HcNtmhfleM7HcBYwrnbZoX5XjOx3DbZoX5XjOx3AWMK522aF+V4zsdw22aF+V4zsdwFjCudtmhfleM7HcNtmhfleM7HcBYwrnbZoX5XjOx3DbZoX5XjOx3AWMK522aF+V4zsdw22aF+V4zsdwFjCudtmhfleM7HcNtmhfleM7HcBYwrnbZoX5XjOx3DbZoX5XjOx3AWMK522aF+V4zsdw22aF+V4zsdwFjCudtmhfleM7HcNtmhfleM7HcBYwrnbZoX5XjOx3DbZoX5XjOx3AWMK522aF+V4zsdw22aF+V4zsdwFjCudtmhfleM7HcNtmhfleM7HcBYwrnbZoX5XjOx3DbZoX5XjOx3AWMK522aF+V4zsdw22aF+V4zsdwFjCudtmhfleM7HcNtmhfleM7HcBYwrnbZoX5XjOx3DbZoX5XjOx3AWMK522aF+V4zsdw22aF+V4zsdwFjCudtmhfleM7HcNtmhfleM7HcBYwrnbZoX5XjOx3DbZoX5XjOx3AWMK522aF+V4zsdw22aF+V4zsdwFjCudtmhfleM7HcNtmhfleM7HcBYzLnC9lXyXwh46umni28bTRiqfTMxqq/3Uz71u7bNC/K8Z2O4q/hZ0t0e0uryvFZPfvV4nD/lLd2Lliq3+pOqY8M8uqYn3grdp/gdzT5S4PMDbqq13MFVXhavVTOun/bVDMEci5+AHNuJjs4yiqrwXLdGKtxr56Z4tX2TT7hdXuAIAAAAAAAAAAAAAAAAAAAAAAAAAAAAAAAAAAAAgnC5m05Vwe5hxKpi7i+LhKJj+ef1v9sVMuNN8M+D/OeDnGXNWucNds3vV+txZ+ypmQXAEu0Y4NtI9LMHONwNizZwczMUX8Tc4kVzHLxY1TM+vVqFRHXO81zvWZsK0s8pyvr6u6bCtLPKcr6+ruiKz1zvNc71mbCtLPKcr6+rumwrSzynK+vq7oKz1zvNc71mbCtLPKcr6+rumwrSzynK+vq7oKz1zvNc71mbCtLPKcr6+rumwrSzynK+vq7oKz1zvNc71mbCtLPKcr6+rumwrSzynK+vq7oKz1zvNc71mbCtLPKcr6+rumwrSzynK+vq7oKz1zvNc71mbCtLPKcr6+rumwrSzynK+vq7oKz1zvNc71mbCtLPKcr6+rumwrSzynK+vq7oKz1zvNc71mbCtLPKcr6+rumwrSzynK+vq7oKz1zvNc71mbCtLPKcr6+rumwrSzynK+vq7oKz1zvNc71mbCtLPKcr6+rumwrSzynK+vq7oKz1zvNc71mbCtLPKcr6+rumwrSzynK+vq7oKz1zvNc71mbCtLPKcr6+rumwrSzynK+vq7oKz1zvNc71mbCtLPKcr6+rumwrSzynK+vq7oKz1zvNc71mbCtLPKcr6+rumwrSzynK+vq7oKz1zvNc71mbCtLPKcr6+rumwrSzynK+vq7oKz1zvNc71mbCtLPKcr6+rumwrSzynK+vq7oKz1zvNc71mbCtLPKcr6+rumwrSzynK+vq7oKz1zvNc71mbCtLPKcr6+rumwrSzynK+vq7oKz1zvNc71mbCtLPKcr6+rumwrSzynK+vq7oKz1zvNc71mbCtLPKcr6+rumwrSzynK+vq7oKz1zvNc71mbCtLPKcr6+rumwrSzynK+vq7oKz1zvNc71mbCtLPKcr6+rumwrSzynK+vq7oKz1zvNc71mbCtLPKcr6+rumwrSzynK+vq7oKz1zvNc71mbCtLPKcr6+rumwrSzynK+vq7oKz1zvNc71mbCtLPKcr6+rumwrSzynK+vq7oKz1zvNc71mbCtLPKcr6+rumwrSzynK+vq7oKz1zvNc71mbCtLPKcr6+rumwrSzynK+vq7oKz1zvNc71mbCtLPKcr6+rumwrSzynK+vq7oKz1zvNc71mbCtLPKcr6+rumwrSzynK+vq7oKz1zvNc71mbCtLPKcr6+rumwrSzynK+vq7oKz1zvNc71mbCtLPKcr6+rumwrSzynK+vq7oKz1zvNc71mbCtLPKcr6+rumwrSzynK+vq7oKz1zvNc71mbCtLPKcr6+rumwrSzynK+vq7oKz1zvNc71mbCtLPKcr6+rumwrSzynK+vq7oKz1zvNc71mbCtLPKcr6+rumwrSzynK+vq7oKz1zvNc71mbCtLPKcr6+rumwrSzynK+vq7oKz1zvNc71mbCtLPKcr6+rumwrSzynK+vq7oKz1zvNc71mbCtLPKcr6+rumwrSzynK+vq7oKz1zvFlXOAzS6i3VVTeyyuYjwUxiKomffSr/MMuxeU4+9gMfYrsYqxVxblqvlpn4ennB6qYcF+ZVZZwjZRXE/q37k4auN8Vxq/zqlD0v4LcJ+e8JOTUatcW7tV6f9FEz/nUDV1P7Mep1yj9iPU6IAAAAAAAAAAAAAAAAAAAAAAAAAAAAAAAAAAAAjmnmC+UNBM9w0RrmrA3Jj10xxo/wyHE6417/C2zirFOKwl6xX+zdoqon1TEwxVdszh7tdmqNVVuqaJ9cTq/4Fx+PVyte6Dzh7ug+R14e3TTanA2eLTHN+rGv7dbIUeCWneB3NbOO4OsDZpuca7g6q8Pcp56dVUzTr9dMwGrB1RuNUbnNcbzXG8R3VG41Ruc1xvNcbwd1RuNUbnNcbzXG8HdUbjVG5zXG81xvB3VG41Ruc1xvNcbwd1RuNUbnNcbzXG8HdUbjVG5zXG81xvB3VG41Ruc1xvNcbwd1RuNUbnNcbzXG8HdUbjVG5zXG81xvB3VG41Ruc1xvNcbwd1RuNUbnNcbzXG8HdUbjVG5zXG81xvB3VG41Ruc1xvNcbwd1RuNUbnNcbzXG8HdUbjVG5zXG81xvB3VG41Ruc1xvNcbwd1RuNUbnNcbzXG8HdUbjVG5zXG81xvB3VG41Ruc1xvNcbwd1RuNUbnNcbzXG8HdUbjVG5zXG81xvB3VG41Ruc1xvNcbwd1RuNUbnNcbzXG8HdUbjVG5zXG81xvB3VG41Ruc1xvNcbwd1RuNUbnNcbzXG8HdUbjVG5zXG81xvB3VG41Ruc1xvNcbwd1RuNUbnNcbzXG8HdUbjVG5zXG81xvB3VG41Ruc1xvNcbwd1RuNUbnNcbzXG8HdUbjVG5zXG81xvB3VG41Ruc1xvNcbwd1RuNUbnNcbzXG8HdUbjVG5zXG81xvB3VG41Ruc1xvNcbwd1RuNUbnNcbzXG8DixPNDN3DjVZnTy1TaoiLlOBtxdmOeeNXMfZqaQmuI3so8JuZ2s14RM3v2LkXLVu5TYoqpnXE8SmKZ1e3WCIrO4CsF+X06xGJmPBhsDXPtqqpp+KsV3f8AT7gv/wB+x0xz2bNM/wB1U/5gXV4RyACAAAAAAAAAAAAAAAAAAAAAAAAAAAAAAAAAAAAOVeCmZ3Mgaa4P5P03zvCxGqKMbdmPVNXGj/LX9X7M+pl/hiwn5rwk42vVqjEWbV6PT+rxZ+2kXECfRyfP830fxNWIyjML+Du1xxa5tz4Ko9MT4J9r5wKl+1LTfpBf6q33Tajpv0gv9Vb7qIAiX7UdN+kF/qrfdNqOm/SC/wBVb7qIARL9qOm/SC/1Vvum1HTfpBf6q33UQAiX7UdN+kF/qrfdNqOm/SC/1VvuogBEv2o6b9IL/VW+6bUdN+kF/qrfdRACJftR036QX+qt902o6b9IL/VW+6iAES/ajpv0gv8AVW+6bUdN+kF/qrfdRACJftR036QX+qt902o6b9IL/VW+6iAES/ajpv0gv9Vb7ptR036QX+qt91EAIl+1HTfpBf6q33Tajpv0gv8AVW+6iAES/ajpv0gv9Vb7ptR036QX+qt91EAIl+1HTfpBf6q33Tajpv0gv9Vb7qIARL9qOm/SC/1Vvum1HTfpBf6q33UQAiX7UdN+kF/qrfdNqOm/SC/1VvuogBEv2o6b9IL/AFVvum1HTfpBf6q33UQAiX7UdN+kF/qrfdNqOm/SC/1VvuogBEv2o6b9IL/VW+6bUdN+kF/qrfdRACJftR036QX+qt902o6b9IL/AFVvuogBEv2o6b9IL/VW+6bUdN+kF/qrfdRACJftR036QX+qt902o6b9IL/VW+6iAES/ajpv0gv9Vb7ptR036QX+qt91EAIl+1HTfpBf6q33Tajpv0gv9Vb7qIARL9qOm/SC/wBVb7ptR036QX+qt91EAIl+1HTfpBf6q33Tajpv0gv9Vb7qIARL9qOm/SC/1Vvum1HTfpBf6q33UQAiX7UdN+kF/qrfdNqOm/SC/wBVb7qIARL9qOm/SC/1Vvum1HTfpBf6q33UQAiX7UdN+kF/qrfdNqOm/SC/1VvuogBEv2o6b9IL/VW+6bUdN+kF/qrfdRACJftR036QX+qt902o6b9IL/VW+6iAES/ajpv0gv8AVW+6bUdN+kF/qrfdRACJftR036QX+qt902o6b9IL/VW+6iAES/ajpv0gv9Vb7ptR036QX+qt91EAIl+1HTfpBf6q33Tajpv0gv8AVW+6iAES/ajpv0gv9Vb7ptR036QX+qt91EAIl+1HTfpBf6q33Tajpv0gv9Vb7qIARL9qOm/SC/1Vvum1HTfpBf6q33UQAiX7UdN+kF/qrfdNqOm/SC/1VvuogBEv2o6b9IL/AFVvum1HTfpBf6q33UQAiU4rhH0yxuGuYa/pBiptXI1VRRFNEzG7XTESiwCjR3AXg/yGg17ETGqcTjLlWvfFMU0x/iWcedq3guwc4Lg4yS3NOqqvDzen/XVNX+JgTUxAEAAAAAAAAAAAAAAAAAAAAAAAAAAAAAAAAAAAAEP024Pcr02t2asVN3D4uxTNNrE2dXGiJnXNMxPgmOf0JgAzHp3wVY7Q7A05lYxcY7AcaKLlX5PiV2pnwRMxrmJiZ8GvfqV61ZwpxE8Gue64/wDx4+/SymLj2ssy7FZvmeGy7BWvyuJxNyLdujXq1zO+eaOeZXJhf+n/AF4eicXpBVTf1frxZw0TRE+iZq1yhPBFTE8JmVa41/q3p/8A9VTUwKW+b7hukN/slPePm+4bpDf7JT3l0gilvm+4bpDf7JT3j5vuG6Q3+yU95dIClvm+4bpDf7JT3j5vuG6Q3+yU95dIClvm+4bpDf7JT3j5vuG6Q3+yU95dIClvm+4bpDf7JT3j5vuG6Q3+yU95dIClvm+4bpDf7JT3j5vuG6Q3+yU95dIClvm+4bpDf7JT3j5vuG6Q3+yU95dIClvm+4bpDf7JT3j5vuG6Q3+yU95dIClvm+4bpDf7JT3j5vuG6Q3+yU95dIClvm+4bpDf7JT3j5vuG6Q3+yU95dIClvm+4bpDf7JT3j5vuG6Q3+yU95dIClvm+4bpDf7JT3j5vuG6Q3+yU95dIClvm+4bpDf7JT3j5vuG6Q3+yU95dIClvm+4bpDf7JT3j5vuG6Q3+yU95dIClvm+4bpDf7JT3j5vuG6Q3+yU95dIClvm+4bpDf7JT3j5vuG6Q3+yU95dIClvm+4bpDf7JT3j5vuG6Q3+yU95dIClvm+4bpDf7JT3j5vuG6Q3+yU95dIClvm+4bpDf7JT3j5vuG6Q3+yU95dIClvm+4bpDf7JT3j5vuG6Q3+yU95dIClvm+4bpDf7JT3j5vuG6Q3+yU95dIClvm+4bpDf7JT3j5vuG6Q3+yU95dIClvm+4bpDf7JT3j5vuG6Q3+yU95dIClvm+4bpDf7JT3j5vuG6Q3+yU95dIClvm+4bpDf7JT3j5vuG6Q3+yU95dIClvm+4bpDf7JT3j5vuG6Q3+yU95dIClvm+4bpDf7JT3j5vuG6Q3+yU95dIClvm+4bpDf7JT3j5vuG6Q3+yU95dIClvm+4bpDf7JT3j5vuG6Q3+yU95dIClvm+4bpDf7JT3j5vuG6Q3+yU95dIClvm+4bpDf7JT3j5vuG6Q3+yU95dIClvm+4bpDf7JT3j5vuG6Q3+yU95dIClvm+4bpDf7JT3j5vuG6Q3+yU95dIClvm+4bpDf7JT3j5vuG6Q3+yU95dIClvm+4bpDf7JT3j5vuG6Q3+yU95dIClvm+4bpDf7JT3j5vuG6Q3+yU95dIClvm+4bpDf7JT3j5vuG6Q3+yU95dIClfm+4bpFiOyU95CNPODDHaFYa1jqMVTjcvrri3NzicSu3VPJxo1zGqd8NQoLwvxE8GWaeu1+JSDLb3snynGZ7m+GyzAW4uYnEV8WiJnVEb5meaIjXMvR55WBwMxr4SsL9Wv8A3RU6yfgEwFi5Zu5vmt7FxGqa7Fm3Fuiqd3GmZq1e6VwWbNuxZotWqKaKKKYppppjVFMRGqIh+45IdEAAAAAAAAAAAAAAAAAAAAAAAAAAAAAAAAAAAAAAAAQ3hT8Wue/Vo+/SylHO1bwp+LXPfq0ffpZSjnFxOuCHxmZX/Te/CqalZa4IfGZlf9N78KpqUQAAAAAAAAAAAAAAAAAAAAAAAAAAAAAAAAAAAAAAAAAAAAAAAAAAAAAAAAAAAAAAAAAAAAAAAAAAQXhf8WWa+u1+JSnSC8L/AIss19dr8SkGW+eVgcDHjKwv1a/91X/PKwOBjxlYX6tf+6K09HJARyQCAAAAAAAAAAAAAAAAAAAAAAAAAAAAAAAAAAAAAAAAIbwp+LXPfq0ffpZSjnat4U/Frnv1aPv0spRzi4nXBD4zMr/pvfhVNSstcEPjMyv+m9+FU1KIAAAAAAAAAAAAAAAAAAAAAAAAAAAAAAAAAAAAAAAAAAAAAAAAAAAAAAAAAAAAAAAAAAAAAAAAAAILwv8AiyzX12vxKU6QXhf8WWa+u1+JSDLfPKwOBjxlYX6tf+6r/nlYHAx4ysL9Wv8A3RWno5ICOSAQAAAAAAAAAAAAAAAAAAAAAAAAAAAAAAAAAAAAAAABDeFPxa579Wj79LKUc7VvCn4tc9+rR9+llKOcXE64IfGZlf8ATe/CqalZa4IfGZlf9N78KpqUQAAAAAAAAAAAAAAAAAAAAAAAAAAAAAAAAAAAAAAAAAAAAAAAAAAAAAAAAAAAAAAAAAAAAAAAAAAQXhf8WWa+u1+JSnSC8L/iyzX12vxKQZb55WBwMeMrC/Vr/wB1X/PKwOBjxlYX6tf+6K09HJARyQCAAAAAAAAAAAAAAAAAAAAAAAAAAAAAAAAAAAAAAAAIbwp+LXPfq0ffpZSjnat4U/Frnv1aPv0spRzi4nXBD4zMr/pvfhVNSstcEPjMyv8ApvfhVNSiAAAAAAAAAAAAAAAAAAAAAAAAAAAAAAAAAAAAAAAAAAAAAAAAAAAAAAAAAAAAAAAAAAAAAAAAAACC8L/iyzX12vxKU6QXhf8AFlmvrtfiUgy3zysDgY8ZWF+rX/uq/wCeVgcDHjKwv1a/90Vp6OSAjkgEAAAAAAAAAAAAAAAAAAAAAAAAAAAAAAAAAAAAAAAAQ3hT8Wue/Vo+/SylHO1bwp+LXPfq0ffpZSjnFxOuCHxmZX/Te/CqalZa4IfGZlf9N78KpqUQAAAAAAAAAAAAAAAAAAAAAAAAAAAAAAAAAAAAAAAAAAAAAAAAAAAAAAAAAAAAAAAAAAAAAAAAAAQXhf8AFlmvrtfiUp0gvC/4ss19dr8SkGW+eVgcDHjKwv1a/wDdV/zysDgY8ZWF+rX/ALorT0ckBHJAIAAAAAAAAAAAAAAAAAAAAAAAAAAAAAAAAAAAAAAAAhvCn4tc9+rR9+llKOdq3hT8Wue/Vo+/SylHOLidcEPjMyv+m9+FU1Ky1wQ+MzK/6b34VTUogAAAAAAAAAAAAAAAAAAAAAAAAAAAAAAAAAAAAAAAAAAAAAAAAAAAAAAAAAAAAAAAAAAAAAAAAAAgvC/4ss19dr8SlOkF4X/FlmvrtfiUgy3zysDgY8ZWF+rX/uq/55WBwMeMrC/Vr/3RWno5ICOSAQAAAAAAAAAAAAAAAAAAAAAAAAAAAAAAAAAAAAAAABDeFPxa579Wj79LKUc7VvCn4tc9+rR9+llKOcXE64IfGZlf9N78KpqVlrgh8ZmV/wBN78KpqUQAAAAAAAAAAAAAAAAAAAAAAAAAAAAAAAAAAAAAAAAAAAAAAAAAAAAAAAAAAAAAAAAAAAAAAAAAAQXhf8WWa+u1+JSnSC8L/iyzX12vxKQZb55WBwMeMrC/Vr/3Vf8APKwOBjxlYX6tf+6K09HJARyQCAAAAAAAAAAAAAAAAAAAAAAAAAAAAAAAAAAAAAAAAIbwp+LXPfq0ffpZSjnat4U/Frnv1aPv0spRzi4nXBD4zMr/AKb34VTUrLXBD4zMr/pvfhVNSiAAAAAAAAAAAOVVcWnXq1+oHRX93hl0Ms3a7VzGYumuiqaaqZwVzXExOqY5H421aE+XYrsdz4AsMV7tq0J8uxXY7nwTPJs4wefZTh8zy+5NzC4injW6ppmJmNerwxPhidccgPfAAAAAAHz85znBZBld/MswuzawtinjV1RTMzy6oiIjwzOuY8CGbatCfLsV2O58AWGK821aE+XYrsdz4Pp5DwmaNaS5rRluV38TexNVNVeqcLXTEUxHhmZmNUf/AMgmAAAOVVcXmB0RXOeEXRXIq6reNzex+WpnVNmxru16/VTr1e1Dcbw+ZDZqqjB5XmOJ1T4Jq4luJ98zP2AtwUhV/wBQVvX+po1Xq/mxsd15bH/UDgpqiMRo9iqI55tYmmv7JiAXUK4yzhs0Qx0xTiL2LwFU+U2J4v8AdTrhOsuzfAZth/zjLsXYxVn6di5Fce3VyA90I8MAAOVTxaZmeYHRCs34VNFcjzbE5Zj8XiKMVh6opuU04WuqInVE8sRqnwTD0dtWhPl2K7Hc+ALDFebatCfLsV2O58DbVoT5diux3PgCwxXm2rQny7FdjufA21aE+XYrsdz4AsMV5tq0J8uxXY7nwNtWhPl2K7Hc+ALDFebatCfLsV2O58DbVoT5diux3PgCwxXu2rQmf/zsV2O58EzybN8Jn2VYfM8BVVXhcRRx7dVVM0zMa5jknwxyA98fOzzO8Fo7lF7NMxrrowtnVx6qKJqmNcxEeCPDyyh22rQny7FdjufAFhCvNtWhPl2K7Hc+Btq0J8uxXY7nwBYYrzbVoT5diux3PgbatCfLsV2O58AWGK821aE+XYrsdz4G2rQny7FdjufAFhivNtWhPl2K7Hc+Btq0J8uxXY7nwBYY+XkGf4DSXKrWZ5ZXXcwtyaqaaq6JomZpnVPgnw8r6gAAAAAAAAAACC8L/iyzX12vxKU6QXhf8WWa+u1+JSDLfPKwOBjxlYX6tf8Auq/55WBwMeMrC/Vr/wB0Vp6OSAjkgEAAAAAAAAAAAAAAAAAAAAAAAAAAAAAAAAAAAAAAAAQ3hT8Wue/Vo+/SylHO1bwp+LXPfq0ffpZSjnFxOuCHxmZX/Te/CqalZa4IfGZlf9N78KpqUQAAAAAAAAAAcmNcanQGZeGPRyck01uY2zTxcJmdP5enVyRcjwVx79VX+pXeud7UfCxo1+kOhGLqs0cbF4L/AMqxqjwzxY/Wp9tOv2xDLnqnX6RcNc6uVePAPpHxrON0cv1zxqJ/OsNEz+7OqK6fZOqfbKjn2NFs9u6NaT4DN7czMYe7E3KY/etz4K4/tmQbGHhwt+3icPbvWa+PauUxXRVHPTMa4n3PMIAAHMPBi8VZwWEvYnEV8Szat1XLlc/u0xGuZ9wKV4eNJfDgNHLFc+H/AMrFRE83hi3TP+6r2QpLXO99TSPO7ukmkWOze9r42JuzVTTP7tHJTT7KYiHyxcPDvX9wFaNThclxef36f+7javyNjXzWqZ8M+2r7qjcpyzEZ1m+EyzCxrv4q7Tao9GueX2Rrn2Ni5TltjJ8rw2X4WmKbGGtU2rceiI1f/wA+0HugrDhQ4TKdGLXyTlNUVZxdp11VzGuMNTPJMxz1TzR7Z5tZH29NOEjJtDbP5K9NWJzGqNdGDtVRxvRNc/ux6/DuhQWlHCNpHpTVXRiMbVhsHVPgwmGqmijV/NPLV7fci1/EXsVfuX8RduXr1yqaq7lyqaqqpnlmZnll4xcI8Eao8HqByZiI1zMRG+RXTU7THHjXTrqj0RMvzxqderjRr3A7rmOSXtZfmONyrF04rL8XfwmIp5LlmuaZ+zl9r1QF06G8N9y3VawWlVHHp/ZjH2adUx6a6I5fXT7l24PG4fH4W1icLeovWLtPGou26oqpqjfEwxTyJnoDwg4/QvHxbqquYjKbtWu/hdf7O+ujdV6OSftEjVb81/sT6nq5ZmOFzXLsPjsFfpv4bEURXbuU8lUT/wD3ke1X+xV6hGUeE+Z2l574f/v0/h0ojrnelnChXTHCZnsTMf8Ar08/8lKI8en6Ue8V+tc7zXO9+ePT9KPecen6Ue8V+tc7zXO9yJiY1w6Brnea53jnGpjlmPeDuud5rne/PHp+lHvOPT9KPeD9xM6+WWreC/xbZF9W/wDlUyhFdOv9qPe1fwXTE8G2RavJv/lUJr1+F3xY5v6rf4lLLUzOufC1Lwu+LHN/Vb/EpZZ55DDXO81zvHJqpjlmI9Yruud5rne/P5S3/Eo95+Ut/wASj3g/Wud5rne/P5S3/Eo95+Ut/wASj3g/Wud5Mzq5X5/KW/4lHvJuW9X/AKlHvBp/gZ8PBpl//u3vxJWCr3gYmJ4M8v1TEx+Vv+GP/clYQyAAAAAAAAAAILwv+LLNfXa/EpTpBeF/xZZr67X4lIMt88rA4GPGVhfq1/7qv+eVgcDHjKwv1a/90Vp6OSAjkgEAAAAAAAAAAAAAAAAAAAAAAAAAAAAAAAAAAAAAAAAQ3hT8Wue/Vo+/SylHO1bwp+LXPfq0ffpZSjnFxOuCHxmZX/Te/CqalZa4IfGZlf8ATe/CqalEAAAAAAAAAAAAfm5GuiYmIn0Tzsk6f6Ozoxprj8BRTxcNVV+Xw3ptV65iPZOuPY1wqXhy0cjHaPWc9s29d/LquLdmI5bNU+H3Vap9sgz2eoBppHgV0j+VtDoy29XxsTllf5Hwz4ZtT4aJ9nhp/wBKzWVeC3ST9HNOcHVducXCYyfzW/rnwRFU/q1eyrV7JlqmJ1wMugAKs4bdJYyzRa3lFmuYxGZ1cSqI5Ys0+Gr3zqj3rSq/Zn1Mn8I+kcaTaa4zFWq5qwtifzbD7uJRMxM+2rXPtgESB+qKK7tym3bomuuqYpppjlqmZ1RHvGlvcBWjU4rNMbpBfo128LH5vh5mOW5VGuqY9VOqP9S/kf0L0fo0X0VwOVUxH5S1biq9VH712rw1z7/B7ISAZRjTrSyzohozezKrVViJn8lhrU//AHLsx4PZHhmfRDJ2LxeJx+MvYvGXq72IvVzcuXK58NVU8srD4Z9Iqs10w+TLVyZw2V0/k9UT4Ju1eGufZ4KfZKthcAWhwRaAUaRY+vOcztRXluEr4tu1XHgv3Y8Ph300+DXvmYjeD1tBuCTM9KLdvH5hcnL8sriKqJmnXdvRvpieSPTPsiV1ZJwb6KZFTT+b5Nh7t2P/AL2Jj8tXM79dXJ7NSV0URTEaoiPBq8D9CPDbwti1RxLdm3RTHNTREQ9PH5BlGZ25oxuWYPE0zy/lbFNX/D6QCptKOBDJ8fZrvZDc+TMVHhi1VM12a/RMT4afZPsUXnWR5jo9mdzL80w1WHxNHh1T4YqjmqpnkmPTDZurXyoppzoZg9MchuYS7FFvF29dWFxGrw2q+7PJMf8AMAyYPPjcHiMvx1/BYu1NrEYe5Nu7bn92qJ1TDwDS1OBrTWrKM4p0fx16fzHG1/8AYmqfBavTzeqrk9ere0TExVT8WI6aqqKoqpqmmqmdcVRyxMckw1xoHpF+k+h2XZlXVE4iujiX4jmuUzqq98xr9oy+liNHckxeIrxGJyjL716udddy5hqKqqp9MzHheL9FNHfMOV9kt/B9gB8f9FNHfMOV9kt/BydFdHeLP/0HLOTyS38H2XKv2Z9QMpcKOFw+B4Rs1w2FsWrFmibfFt2qIppj/t0z4IjwIemvC340M39dr8OlChcI5Yai4P8AR3JMXoFkl/EZPl967XhKJquXMNRVVVPh8MzMeFl2OWGteDfxd5D9To/5DX0f0U0d8w5X2S38D9FNHfMOV9kt/B9gEfH/AEU0e8w5X2S38H08PhrGEsUWMNZt2bNEaqbdumKaaY3REcjygIPwu+LHN/Vb/EpZZ55am4XfFjm/qt/iUss88i4LD4FsNh8Xp9NrE2LV63+Z3Z4tyiKo166fDqlXiyOA/wAYc/Urv+aQaGjIsp1f/teC7PR8D5CyjzXguz0fB9AEfP8AkLKPNeC7PR8D5CyjzXguz0fB9AB8/wCQso814Ls9HwPkLKPNeC7PR8H0AHisYaxhbUWsPZt2rcclNumKYj2Q8oAAAAAAAAAAAILwv+LLNfXa/EpTpBeF/wAWWa+u1+JSDLfPKwOBjxlYX6tf+6r/AJ5WBwMeMrC/Vr/3RWno5ICOSAQAAAAAAAAAAAAAAAAAAAAAAAAAAAAAAAAAAAAAAABDeFPxa579Wj79LKUc7VvCn4tc9+rR9+llKOcXE64IfGZlf9N78KpqVlrgh8ZmV/03vwqmpRAAAAAAAAAAAAB6uY4KxmOW4nB4miK7GIt1WrlO+mqNUvaNWsGMc9ym/kOe43KsTH/dwt2bcz9KOar2xqn2vnrm4d9HPyWNwekVi3+rciMLiZiP3o1zRVPrjXHshTIuEcuvXMemOWGsuDrSSNJ9C8DjblfGxVEfkMT/AO5RqiZ9saqvayatTgP0j+TtJb+R3q9VnMaeNb18kXaI1/bTrj2QGtFDlM641kzqiZEQzhP0knRrQvF3rVzi4vFR+a4fVPh41UTrq9lOufcyrHgjVzQsvhp0knN9L4yy1c42Gyumbc6p8E3avDXPsjVT7JVoLgsLge0c+XNM6MZdt8bC5ZTGIq1x4JucluPfrq/0q9ai4JtGv0e0IsVX7fFxeOmMVe18scaP1KfZTq9syCdxERyPFib9OGw9y9XOqi3RNdXqiNbzPg6Z35w2hedXqZ1TRgb0xP8AomP+RGR8fjbmZZjisddmZuYm9Xeq176qpn/l65EaoiNwNP1bt13blNu3HGuV1RTTG+ZnVH2ti6MZHZ0c0dwOVWYji4azFFVUfvVctU+2dcssaDYanGad5FYrjXTVjbUzHqnjf8Ne0+GmJ3ia6AIAAOTGuNUugM9cOuQ0YLSPCZzZo1U4+3Nu7q/iUatU+2mY/tVM0Xw7Yam5oNYv6v1rGPtzE+iqmqmf+GdBcF6cAOZVVYHOMqqq8Fq7bxNEeiqJpn7aYUWtPgHvVUaaY2zr/Vu4GZmP6a6Zj/MhrRccgRyAg5V+zPqdcq/Zn1Ayvwt+NDN/Xa/DpQpNeFvxoZv67X4dKFCkcsNa8G/i7yH6nR/yyVHLDWvBv4u8h+p0f8hqUgCAAIPwu+LHN/Vb/EpZZ55am4XfFjm/qt/iUss88i4JxwUZ5lmj2mk47NsXRhcN+a3Lf5SuJmONM06o8ETulBwVqzatoN0hw/8AZX3TatoN0hw/9lfdZU1zvNc7xI1XtW0G6Q4f+yvum1bQbpDh/wCyvusqa53mud4RqvatoN0hw/8AZX3X2Mi0tyLSab8ZNmNvGTY4v5TiU1RxdevVyxG6WPNc712f9P2ubmf+rD//APQReIQAAAAAAAAAAAILwv8AiyzX12vxKU6QXhf8WWa+u1+JSDLfPKwOBjxlYX6tf+6r/nlYHAx4ysL9Wv8A3RWno5ICOSAQAAAAAAAAAAAAAAAAAAAAAAAAAAAAAAAAAAAAAAABDeFPxa579Wj79LKUc7VvCn4tc9+rR9+llKOcXE64IfGZlf8ATe/CqalZa4IfGZlf9N78KpqUQAAAAAAAAAAAAAB8TS3ILWkui+Y5VXqirEWpi3VP7tyPDRPsmIZAvWbuHv3LF+ibd23VNFdE8tNUTqmPe2zVGumYZr4Z9G5yfTKcys29WFzOj8r4OSLseCuPb4KvbIuK2exgcbfy3MMPjsLVxcRh7tN23VuqpnXD1wVszIM2sZ7kOCzXDT/2sVapu0x9HXyx7J1x7Hr6VZ9b0a0ax+bXNU/m9maqKZ/frnwU0+2ZhWHARpJ+UwON0dv1/rWKvznDxPPRVOquPZVqn/U9Lh40l/KYrA6OWLn6tuPzrE6t864opn2a59sDKm79+7ib9y/frmu9dqmu5XP71UzrmffLxgNJNoDo5OlGmWBy+ujjYamr8tiZ3WqfDMe2dVPta3ppimNVMREboVLwG6NTgdHcRnl+3qvZhXxbWvms0T4PfVrn2QtsZHwdNLE4nQrO7NMa5qwF7VH+iZ/4feeHFWKcVhrliv8AYuUVUVeqY1AxNE8aNe/wuvPjMHXl+PxOCuxquYe7VZq9dMzH/DwDSQaC4mnB6eZFfrnVTTjbcTPrni/8te0/sxG5iS3crs3aLtqdVyiqKqZ3TE64+2GxtHM6s6QZBgc0sVRNGJs03JiP3auSqPZOuBNfWAEAAAcmYiNcgq3h2xFNvQazZmY417HW4iP6aaqpZ0W3w757RjM/wWTWa9cYK3N29q5rlerVHspiJ/1KkFwWnwD2Zr01xl7w8W1gKtc+uumP+FWLz4AMtmnB5xmlVPguXLeGon+mJqq+9AausAQcq/Zn1OuVfsz6gZX4W/Ghm/rtfh0oUmvC340M39dr8OlChSOWGteDfxd5D9To/wCWSo5Ya14N/F3kP1Oj/kNSkAQABB+F3xY5v6rf4lLLPPLU3C74sc39Vv8AEpZZ55FwcmYjlmIj0zqdWHwLYaxi9Ppt4mzbvW/zO7PFuURVGvXTzSKrvjUfxKP7oONR/Eo/uhs/5CyjzXguz0fA+Qso814Ls9HwErGHGo/iUf3Qcaj+JR/dDZ/yFlHmvBdno+B8hZR5rwXZ6PgFYw41H8Sj+6F2/wDT7MVXNINVVM+DD8k6/wCIuL5CyjzXguz0fB7GGwGDwU1ThcLYsTV+1+StxTr9eqBHsAAAAAAAAAAAAILwv+LLNfXa/EpTpBeF/wAWWa+u1+JSDLfPKwOBjxlYX6tf+6r/AJ5WBwMeMrC/Vr/3RWno5ICOSAQAAAAAAAAAAAAAAAAAAAAAAAAAAAAAAAAAAAAAAABDeFPxa579Wj79LKUc7VvCn4tc9+rR9+llKOcXE64IfGZlf9N78KpqVlrgh8ZmV/03vwqmpRAAAAAAAAAAAAAABCeFLRudI9CcbRat8bF4SPzrD6uWZpieNT7adce5NnKo10zGrWDEXLGvmnwwJXwi6N/oxprjsHbo4uFuz+c4bd+TrmZ1eydcexFBp9nRPPrmjOlOAzajjVUWLn/dop5a7c+CuPd9sQ9fP82vZ/n+OzXET/3MVeqr1fRp/dj2Rqj2PnAD38jyjEZ9nuCyrDf+pir1NqJ+jE8tXsjXPsegubgI0bm7isdpHet66bX/AIuGmfpTqmuqPVGqPbIi7suwNjLcvsYLDUcSxYt02rdO6mmNUPaAQABmfhl0eqyjTOrMLdvVhs0p/LROrwRcjwVx/ir/AFK5a00+0RtaYaMXsBEU04u3P5bC3J/duxHgifRPhifX6GUMThr2DxN3DYm1Vav2q5t3LdcappqidUxIuPEtTge09t5FjashzO/FvAYuvjYe7XOqLN2eaZ5qat/NPrVWc2oVt2mqJ5/C6zhoNwwZho/at5fnNNzH5fREU27kT/3rNO6Nf7ceifDG9dWSaeaM59bpnBZzharkx/6V2uLdyJ/pq1T7hlJR+ablFca6aoqjfHherjM1y7L7c3MbjsNhqI5ar12miPtkHtzMRGuUZ010xwWh+Q3cdfqprxFWujDYfX4b1e71RyzPNCJaU8NeR5ZauWMkn5VxfJTVTrps0z6auWr1R71EZ7pBmekmZ15hmuJm/fq8Ec1NFP0aY5o//s6wepj8diMzzDEY7F3Zu4nEXJuXa556p5XrgNO0xNVUU00zVM+CKY5Znc1twf6PTozoXl2XXaYjExR+VxGr+JV4avdyexS3A7oXVnmfU53jbM/J2Ar12+NHgvX48MR6Yp5Z9OqGj4jVGoTXQBByr9mfU65V+zPqBlfhb8aGb+u1+HShSa8LfjQzf12vw6UKFI5Ya14N/F3kP1Oj/lkqOWGteDfxd5D9To/5DUpAEAAQfhd8WOb+q3+JSyzzy1Nwu+LHN/Vb/EpZZ55FwWRwH+MOfqV3/NKt1jcCd23Z4QJru3KKKfzK7GuqqIjlpDWmB63yjgvLMP1tPxPlHBeWYfrafiI9ket8o4LyzD9bT8T5RwXlmH62n4g9ket8o4LyzD9bT8T5RwXlmH62n4g9keK1ibF+Zizet3Jjl4lUTq9zygAAAAAAAAAAILwv+LLNfXa/EpTpBeF/xZZr67X4lIMt88rA4GPGVhfq1/7qv+eVgcDHjKwv1a/90Vp6OSAjkgEAAAAAAAAAAAAAAAAAAAAAAAAAAAAAAAAAAAAAAAAQ3hT8Wue/Vo+/SylHO1bwp+LXPfq0ffpZSjnFxOuCHxmZX/Te/CqalZa4IfGZlf8ATe/CqalEAAAAAAAAAAAAAAAAVVw4aORmWjVGc2bevEZZVrrmI5bNU6qvdOqfezs2tjsJYx2BxGFxNHHsXrdVu5R9KmY1THuY80hyW9o7pBjsov65rwt2aIqn96nlpq9tMxIuPmBrjea43ivJYs3MRft2LNE13blcUUURy1VTOqI97X2iWQ2tGdGcDlFqIn83txFyqP37k+Gqr2zMqG4GNHPlfS/5TvUcbDZXEXfDyTdq8FEezw1eyGlKY1QMugAAAKo4U+DOrSCirO8mtf8A1W3T/wB2zHg/OqY3fzxHJv5Ny13JiJ5QYkuW67Nyu3doqoroqmmqmuNU0zHLExzS/LUenHBhk+l9M4mmPzPNOSMXbp18fdFyn96PTy+lQOk2gekOilyr8/wNVeGif1cXY112pj0zy0+3ULmo0eCeWIn1xrObXzbwV5aMViLUard+7RG6m5VEfZLx11Tcq41c8arfV4Z+1wEhz6wefCYPFY/FUYXB4e7iMRXOqm1aomqqfZArwJZoNoHmOmuZxRbprs5baq/8nF6vBT/LTvr9HNyz6ZrofwI4vFV2sZpPVOHscsYK1XruV+iuqPBTHojXPpheWX5dg8rwVnCYHDW8Nh7NPFt2rdOqmmPUJXjyjKcHkuV4bL8DYizhsPRxLdEc0b53zPLM88vfAQAAcq/Zn1OuVfsz6gZX4W/Ghm/rtfh0oUmvC3P/AOp+b+u1+HShWuN4pHLDWvBv4u8h+p0f8slRMa48LWnBv4u8h+p0f8hqVACAAIPwu+LHN/Vb/EpZZ55am4XfFjm/qt/iUsszMa5FwNUc8RPrNcbzXG8U1R9Gn3GqPo0+41xvNcbxDVH0afcao+jT7jXG81xvA1R9Gn3GqPo0+41xvNcbwXT/ANPsR+e59qiI/wC3Y5I9Na9VFf8AT7//AJmff+3Y+9WvUQAAAAAAAAAAQXhf8WWa+u1+JSnSC8L/AIss19dr8SkGW+eVgcDHjKwv1a/91X/PKwOBjxlYX6tf+6K09HJARyQCAAAAAAAAAAAAAAAAAAAAAAAAAAAAAAAAAAAAAAAAIbwp+LXPfq0ffpZSjnat4U/Frnv1aPv0spRzi4nXBD4zMr/pvfhVNSstcEPjMyv+m9+FU1KIAAAAAAAAAAAAAAAATGuNSHaS8GejmleaxmWY2sRGJ/JxbmqzemiKojXq1xzz4UxAVrsN0N+hmHa5+BsN0N+hmHa5+CygHwtGNEsq0Qy65gcqt3KbVy7N2uq7Xx6qqtUR4Z9UPugAAAAAAA/FVqmqJifDE8sTzv2Ahuc8F2iGdVVXL2UW7N6rwzdwszZqn2U+CfbCHYzgByquuZwWdY6xE8lN21Rc1e2NS4wFE1f9P2I1/q6RW9XpwdXeeax/0/Rr/wDJ0jr1brWD1T75qXgArDLOA3RXCTFWMqx2Pq5Zi7d4lPuoiP8AKe5VkGU5HY/I5XgMPg7erwxZtxTr9c8s+19IByI1RqdAAAAAAmNcagBB8+4KNGdI85xGa4+nGTib/F4828RNNPgiIjwat0Pm7DdDfoZh2ufgsoBWuw7Q2J/YzDtc/BPMnyrDZHlOGy3BxXGHw1uLdvj1cadUb5e8AAAAA+Zn+RYPSTJr+VZhFycNf1cf8nXxavBMTHh9cQhGw7Q76GYdrn4LKAVrsN0N+hmHa5+BsN0N+hmHa5+CygFa7DdDfoZh2ufgbDdDfoZh2ufgsoBWuw3Q36GYdrn4Gw3Q36GYdrn4LKAVrsN0N+hmHa5+BsN0N+hmHa5+CygEY0U0DyXQ25ia8ppxMTiYpi5+WvTX+zr1at3LKTgAAAAAAAAAAAgvC/4ss19dr8SlOkF4X/FlmvrtfiUgy3zysDgY8ZWF+rX/ALqv+eVgcDHjKwv1a/8AdFaejkgI5IBAAAAAAAAAAAAAAAAAAAAAAAAAAAAAAAAAAAAAAAAEN4U/Frnv1aPv0spRztW8Kfi1z36tH36WUo5xcTrgh8ZmV/03vwqmpWWuCHxmZX/Te/CqalEAAAAAAAAAAAAAAAAAAAAAAAAAAAAAAAAAAAAAAAAAAAAAAAAAAAAAAAAAAAAAAAAAAAAAAAAAAEF4X/FlmvrtfiUp0gvC/wCLLNfXa/EpBlvnlYHAx4ysL9Wv/dV/zysDgY8ZWF+rX/uitPRyQEckAgAAAAAAAAAAAAAAAAAAAAAAAAAAAAAAAAAAAAAAACG8Kfi1z36tH36WUo52reFPxa579Wj79LKUc4uJ1wQ+MzK/6b34VTUrLXBD4zMr/pvfhVNSiAAAAAAAAAAAAAAAAAAAAAAAAAAAAAAAAAAAAAAAAAAAAAAAAAAAAAAAAAAAAAAAAAAAAAAAAAACC8L/AIss19dr8SlOkF4X/FlmvrtfiUgy3zysDgY8ZWF+rX/uq/55WBwMeMrC/Vr/AN0Vp6OSAjkgEAAAAAAAAAAAAAAAAAAAAAAAAAAAAAAAAAAAAAAAAQ3hT8Wue/Vo+/SylHO1bwp+LXPfq0ffpZSjnFxOuCHxmZX/AE3vwqmpWWuCHxmZX/Te/CqalEAAAAAAAAAAAAAAAAAAAAAAAAAAAAAAAAAAAAAAAAAAAAAAAAAAAAAAAAAAAAAAAAAAAAAAAAAAEF4X/FlmvrtfiUp0gvC/4ss19dr8SkGW+eVgcDHjKwv1a/8AdV/zysDgY8ZWF+rX/uitPRyQEckAgAAAAAAAAAAAAAAAAAAAAAAAAAAAAAAAAAAAAAAACG8Kfi1z36tH36WUo52reFPxa579Wj79LKUc4uJ1wQ+MzK/6b34VTUrLXBD4zMr/AKb34VTUogAAAAAAAAAAAAAAAAAAAAAAAAAAAAAAAAAAAAAAAAAAAAAAAAAAAAAAAAAAAAAAAAAAAAAAAAAAgvC/4ss19dr8SlOkF4X/ABZZr67X4lIMt88rA4GPGVhfq1/7qv8AnlYHAx4ysL9Wv/dFaejkgI5IBAAAAAAAAAAAAAAAAAAAAAAAAAAAAAAAAAAAAAAAAEN4U/Frnv1aPv0spRztW8Kfi1z36tH36WUo5xcTrgh8ZmV/03vwqmpWWuCHxmZX/Te/CqalEAAAAAAAAAAAAAAAAAAAAAAAAAAAAAAAAAAAAAAAAAAAAAAAAAAAAAAAAAAAAAAAAAAAAAAAAAAEF4X/ABZZr67X4lKdILwv+LLNfXa/EpBlvnlYHAx4ysL9Wv8A3Vf88rA4GPGVhfq1/wC6K09HJARyQCAAAAAAAAAAAAAAAAAAAAAAAAAAAAAAAAAAAAAAAAIbwp+LXPfq0ffpZSjnat4U/Frnv1aPv0spRzi4nXBD4zMr/pvfhVNSstcEPjMyv+m9+FU1KIAAAAAAAAAAAAAAAAAAAAAAAAAAAAAAAAAAAAAAAAAAAAAAAAAAAAAAAAAAAAAAAAAAAAAAAAAAILwv+LLNfXa/EpTpBeF/xZZr67X4lIMt88rA4GPGVhfq1/7qv+eVgcDHjKwv1a/90Vp6OSAjkgEAAAAAAAAAAAAAAAAAAAAAAAAAAAAAAAAAAAAAAAAQ3hT8Wue/Vo+/SylHO1bwp+LXPfq0ffpZSjnFxOOCS5Tb4TMp406uN+Vpj1zaq1NTx4YYuyfM72S51gs0w/hu4S/Tepp+lqnwx7Y1x7WwsmzbCZ3lWHzHA3IuYbEURXRV6+ad0xPgn0wGvfAEAAAAAAAAAAAAAAAAAAAAAAAAAAAAAAAAAAAAAAAAAAAAAAAAAAAAAAAAAAAAAAAAAAAAAAAAED4Ya6aODPMoqnVxqrVMemfylKdzOpR3DppTau04TRrDXONXRXGJxeqf2fBPEpn0+GavcCk+dYHAx4ysL9Wv/dV+sDgY8ZWF+rX/ALorT0ckBHJAIAAAAAAAAAAAAAAAAAAAAAAAAAAAAAAAAAAAAAAAAh/CfbqucG+fU0xMzGF43siqJn7IZQiNWttXMMFZzHAYjB4injWMRaqtXI301RMT/lj/AEiyHF6M57icpxtOq5Yq/Vr5rlH7tceiY/53C4+WmGg/CHmuhV+q3b/8rLrtXGu4SurV4fpUT+7V9k86HgrTeV8Muh2PsxViMwu4C7MeG3irVUav9VOuJ976m1HQjpJgvfPwZQjwcjvGq3iRq7ajoR0kwXvn4G1HQjpJgvfPwZR41W841W8I1dtR0I6SYL3z8DajoR0kwXvn4Mo8arecareEau2o6EdJMF75+BtR0I6SYL3z8GUeNVvONVvCNXbUdCOkmC98/A2o6EdJMF75+DKPGq3nGq3hGrtqOhHSTBe+fgbUdCOkmC98/BlHjVbzjVbwjV21HQjpJgvfPwNqOhHSTBe+fgyjxqt5xqt4Rq7ajoR0kwXvn4G1HQjpJgvfPwZR41W841W8I1dtR0I6SYL3z8DajoR0kwXvn4Mo8arecareEau2o6EdJMF75+BtR0I6SYL3z8GUeNVvONVvCNXbUdCOkmC98/A2o6EdJMF75+DKPGq3nGq3hGrtqOhHSTBe+fgbUdCOkmC98/BlHjVbzjVbwjV21HQjpJgvfPwNqOhHSTBe+fgyjxqt5xqt4Rq7ajoR0kwXvn4G1HQjpJgvfPwZR41W841W8I1dtR0I6SYL3z8DajoR0kwXvn4Mo8arecareEau2o6EdJMF75+BtR0I6SYL3z8GUeNVvONVvCNXbUdCOkmC98/A2o6EdJMF75+DKPGq3nGq3hGrtqOhHSTBe+fgbUdCOkmC98/BlHjVbzjVbwjV21HQjpJgvfPwNqOhHSTBe+fgyjxqt5xqt4Rq7ajoR0kwXvn4G1HQjpJgvfPwZR41W841W8I1dtR0I6SYL3z8DajoR0kwXvn4Mo8arecareEau2o6EdJMF75+BtR0I6SYL3z8GUeNVvONVvCNXbUdCOkmC98/A2o6EdJMF75+DKPGq3nGq3hGrtqOhHSTBe+fgbUdCOkmC98/BlHjVbzjVbwjV21HQjpJgvfPwNqOhHSTBe+fgyjxqt5xqt4Rq7ajoR0kwXvn4G1HQjpJgvfPwZR41W841W8I1dtR0I6SYL3z8DajoR0kwXvn4Mo8arecareEau2o6EdJMF75+BtR0I6SYL3z8GUeNVvONVvCNXbUdCOkmC98/A2o6EdJMF75+DKPGq3nGq3hGrtqOhHSTBe+fgbUdCOkmC98/BlHjVbzjVbwjV21HQjpJgvfPwNqOhHSTBe+fgyjxqt5xqt4Rq7ajoR0kwXvn4G1HQjpJgvfPwZR41W841W8I1dtR0I6SYL3z8DajoR0kwXvn4Mo8arecareEau2o6EdJMF75+BtR0I6SYL3z8GUeNVvONVvCNXbUdCOkmC98/A2o6EdJMF75+DKPGq3nGq3hGrtqOhHSTBe+fgbUdCOkmC98/BlHjVbzjVbwjV21HQjpJgvfPwfi7wqaEW6Jq/SLC1auaiK6p90Qypxqt5xp3hF46V8OVj8hXhdGLF2q7VEx+eYmji00emmjlmfXqj0SpHEYi9i8RcxGIu13b12qa67lc66qqp5Zmd7xgQWHwK26q+EazVTGuLeFvVVTujVEf5lXi/eA3RS9gMvxWkOMtzRXjaYt4amqNU/konXNX+qdWr0U+kNXBHJDoCAAAAAAAAAAAAAAAAAAAAAAAAAAAAAAAAAAAAAAAACLaY6C5TpngqbONtTbxFqJ/IYq1/6lrXzemn0T9iUgM15rwI6V4K9VGB/NMws/u1W7sW6pj001c/qmXyNk2nPmOrtFrvNVaok1RuCsq7JtOfMdXaLXeNk2nPmOrtFrvNVcWNxxY3BWVdk2nPmOrtFrvGybTnzHV2i13mquLG44sbgrKuybTnzHV2i13jZNpz5jq7Ra7zVXFjccWNwVlXZNpz5jq7Ra7xsm058x1dotd5qrixuOLG4Kyrsm058x1dotd42Tac+Y6u0Wu81VxY3HFjcFZV2Tac+Y6u0Wu8bJtOfMdXaLXeaq4sbjixuCsq7JtOfMdXaLXeNk2nPmOrtFrvNVcWNxxY3BWVdk2nPmOrtFrvGybTnzHV2i13mquLG44sbgrKuybTnzHV2i13jZNpz5jq7Ra7zVXFjccWNwVlXZNpz5jq7Ra7xsm058x1dotd5qrixuOLG4Kyrsm058x1dotd42Tac+Y6u0Wu81VxY3HFjcFZV2Tac+Y6u0Wu8bJtOfMdXaLXeaq4sbjixuCsq7JtOfMdXaLXeNk2nPmOrtFrvNVcWNxxY3BWVdk2nPmOrtFrvGybTnzHV2i13mquLG44sbgrKuybTnzHV2i13jZNpz5jq7Ra7zVXFjccWNwVlXZNpz5jq7Ra7xsm058x1dotd5qrixuOLG4Kyrsm058x1dotd42Tac+Y6u0Wu81VxY3HFjcFZV2Tac+Y6u0Wu8bJtOfMdXaLXeaq4sbjixuCsq7JtOfMdXaLXeNk2nPmOrtFrvNVcWNxxY3BWVdk2nPmOrtFrvGybTnzHV2i13mquLG44sbgrKuybTnzHV2i13jZNpz5jq7Ra7zVXFjccWNwVlXZNpz5jq7Ra7xsm058x1dotd5qrixuOLG4Kyrsm058x1dotd42Tac+Y6u0Wu81VxY3HFjcFZV2Tac+Y6u0Wu8bJtOfMdXaLXeaq4sbjixuCsq7JtOfMdXaLXeNk2nPmOrtFrvNVcWNxxY3BWVdk2nPmOrtFrvGybTnzHV2i13mquLG44sbgrKuybTnzHV2i13jZNpz5jq7Ra7zVXFjccWNwVlXZNpz5jq7Ra7xsm058x1dotd5qrixuOLG4Kyrsm058x1dotd42Tac+Y6u0Wu81VxY3HFjcFZV2Tac+Y6u0Wu8bJtOfMdXaLXeaq4sbjixuCsq7JtOfMdXaLXeNk2nPmOrtFrvNVcWNxxY3BWVdk2nPmOrtFrvGybTnzHV2i13mquLG44sbgrKuybTnzHV2i13jZNpz5jq7Ra7zVXFjccWNwVlXZNpz5jq7Ra7xsm058x1dotd5qrixuOLG4Kyrsm058x1dotd42Tac+Y6u0Wu81VxY3HFjcFZV2Tac+Y6u0Wu8bJtOfMdXaLXeaq4sbjixuCsq7JtOfMdXaLXeNk2nPmOrtFrvNVcWNxxY3BWVdk2nPmOrtFrvPJa4IdOLtcUzlFNqOeq5ibcRHumWpuLG44sbgqmdEeA+1hMRbxmkt+1i6qJiqnB2Nf5PX/PVPhq9UREetclu3RaoimimKYiIiIiNUREcz96tQAAAAAAAAAAAAAAAAAAAAAAAAAAAAAAAAAAAAAAAAAAAAAAAAAAAAAAAAAAAAAAAAAAAAAAAAAAAAAAAAAAAAAAAAAAAAAAAAAAAAAAAAAAAAAAAAAAAAAAAAAAAAAAAAAAAAAAAAAAAAAAAAAAAAAAAAAAAAAAAAAAAAAAAAAAAAAAAAAAAAAAAAAAAAAAAAAAAAAAAAAAAAAAAAAAAAAAAAAAAAAAAAAAAAAAAAAAAAAAAAAAAAAAAAAAAAAAAAAAAAAAAAAAAAAAAAAAAAAAAAAAAAAAAAAAAAAAAAAAAAAAAAAAAAAAAAAAAAAAAAAAAAAAAAAAAAAAAAAAAAAAAAAAAAAAAAAAAAAAAAAAAAAAAAAAAAAAAAAAAAAAAAAAAAAAAAAAAAAAAAAAAAAAAAAAAAAAAAAAAAAAAAAAAAAAAAAAAAAAAAAAAAAAAAAAAAAAAAAAAAAAAAAAAAAAAAAAAAAAAAAAAAAAAAAAAAAAAAAAAAAAAAAAAAAAAAAAAAAAAAAAAAAAAAAAAAAAAAAAAAAAAAAAAAAAAAAAAAAAAAAAAAAAAAAAAAAAAAAAAAAAAAAAAAAAAAAAAAAAAAAAAAAAAAAAAAAAAAAAAAAAAAAAAAAAAAAAAAAAAAAAAAAAAAAAAAAAAAAAAAAAAAAAAAAAAAAAAAAAAAAAAAAAAAAAAAAAAAAAAAAAAAAAAAAAAAAAAAAAAAAAAAAAAAAAAAAAAAAAAAAAAAAAAAAAAAAAAAAAAAAAAAAAAAAAAAAAAAAAAAAAAAAAAAAAAAAAAAAAAAAAAAAAAAAAAAAAAAAAAAAAAAAAAAAAAAAAAAAAAAAAAAAAAAAAAAAAAAAAAAAAAAAAAAAAAAAAAAAAAAAAAAAAAAAAD/9k=;imageBackground=light-dark(default, #ff6a00);" vertex="1" parent="1">
          <mxGeometry x="980" y="200.7" width="50" height="50" as="geometry" />
        </mxCell>
      </root>
    </mxGraphModel>
  </diagram>
</mxfile>
